<svg width="116" height="20" viewBox="0 0 116 20" fill="none" xmlns="http://www.w3.org/2000/svg">
<path d="M10 0L12.645 6.35942L19.5106 6.90983L14.2798 11.3906L15.8779 18.0902L10 14.5L4.12215 18.0902L5.72025 11.3906L0.489435 6.90983L7.35497 6.35942L10 0Z" fill="#0C3C43"/>
<path d="M34 0L36.645 6.35942L43.5106 6.90983L38.2798 11.3906L39.8779 18.0902L34 14.5L28.1221 18.0902L29.7202 11.3906L24.4894 6.90983L31.355 6.35942L34 0Z" fill="#0C3C43"/>
<path d="M58 0L60.645 6.35942L67.5106 6.90983L62.2798 11.3906L63.8779 18.0902L58 14.5L52.1221 18.0902L53.7202 11.3906L48.4894 6.90983L55.355 6.35942L58 0Z" fill="#0C3C43"/>
<path d="M82 0L84.645 6.35942L91.5106 6.90983L86.2798 11.3906L87.8779 18.0902L82 14.5L76.1221 18.0902L77.7202 11.3906L72.4894 6.90983L79.355 6.35942L82 0Z" fill="#0C3C43"/>
<path d="M106 0L108.645 6.35942L115.511 6.90983L110.28 11.3906L111.878 18.0902L106 14.5L100.122 18.0902L101.72 11.3906L96.4894 6.90983L103.355 6.35942L106 0Z" fill="#0C3C43"/>
</svg>
