<svg width="342" height="24" viewBox="0 0 342 24" fill="none" xmlns="http://www.w3.org/2000/svg">
<path d="M17.5598 21C17.3998 21.0006 17.2421 20.9629 17.0998 20.89L11.9998 18.22L6.89976 20.89C6.73416 20.977 6.54744 21.0159 6.36084 21.0022C6.17424 20.9884 5.99524 20.9226 5.84419 20.8122C5.69314 20.7017 5.5761 20.5511 5.50638 20.3775C5.43665 20.2039 5.41704 20.0142 5.44976 19.83L6.44976 14.2L2.32976 10.2C2.20122 10.0717 2.11003 9.91083 2.06599 9.73465C2.02195 9.55848 2.02671 9.37363 2.07976 9.19996C2.13772 9.02223 2.24434 8.86431 2.38751 8.74412C2.53069 8.62392 2.70469 8.54627 2.88976 8.51996L8.58976 7.68996L11.0998 2.55996C11.1816 2.39089 11.3095 2.2483 11.4687 2.14853C11.6278 2.04876 11.8119 1.99585 11.9998 1.99585C12.1876 1.99585 12.3717 2.04876 12.5309 2.14853C12.69 2.2483 12.8179 2.39089 12.8998 2.55996L15.4398 7.67996L21.1398 8.50996C21.3248 8.53627 21.4988 8.61392 21.642 8.73412C21.7852 8.85431 21.8918 9.01223 21.9498 9.18996C22.0028 9.36363 22.0076 9.54848 21.9635 9.72465C21.9195 9.90083 21.8283 10.0617 21.6998 10.19L17.5798 14.19L18.5798 19.82C18.6155 20.0074 18.5968 20.2012 18.5259 20.3784C18.455 20.5556 18.3349 20.7088 18.1798 20.82C17.9987 20.9469 17.7806 21.0102 17.5598 21Z" fill="#FFC042"/>
<path d="M45.5598 21C45.3998 21.0006 45.2421 20.9629 45.0998 20.89L39.9998 18.22L34.8998 20.89C34.7342 20.977 34.5474 21.0159 34.3608 21.0022C34.1742 20.9884 33.9952 20.9226 33.8442 20.8122C33.6931 20.7017 33.5761 20.5511 33.5064 20.3775C33.4367 20.2039 33.417 20.0142 33.4498 19.83L34.4498 14.2L30.3298 10.2C30.2012 10.0717 30.11 9.91083 30.066 9.73465C30.0219 9.55848 30.0267 9.37363 30.0798 9.19996C30.1377 9.02223 30.2443 8.86431 30.3875 8.74412C30.5307 8.62392 30.7047 8.54627 30.8898 8.51996L36.5898 7.68996L39.0998 2.55996C39.1816 2.39089 39.3095 2.2483 39.4687 2.14853C39.6278 2.04876 39.8119 1.99585 39.9998 1.99585C40.1876 1.99585 40.3717 2.04876 40.5309 2.14853C40.69 2.2483 40.8179 2.39089 40.8998 2.55996L43.4398 7.67996L49.1398 8.50996C49.3248 8.53627 49.4988 8.61392 49.642 8.73412C49.7852 8.85431 49.8918 9.01223 49.9498 9.18996C50.0028 9.36363 50.0076 9.54848 49.9635 9.72465C49.9195 9.90083 49.8283 10.0617 49.6998 10.19L45.5798 14.19L46.5798 19.82C46.6155 20.0074 46.5968 20.2012 46.5259 20.3784C46.455 20.5556 46.3349 20.7088 46.1798 20.82C45.9987 20.9469 45.7806 21.0102 45.5598 21Z" fill="#FFC042"/>
<path d="M73.5598 21C73.3998 21.0006 73.2421 20.9629 73.0998 20.89L67.9998 18.22L62.8998 20.89C62.7342 20.977 62.5474 21.0159 62.3608 21.0022C62.1742 20.9884 61.9952 20.9226 61.8442 20.8122C61.6931 20.7017 61.5761 20.5511 61.5064 20.3775C61.4367 20.2039 61.417 20.0142 61.4498 19.83L62.4498 14.2L58.3298 10.2C58.2012 10.0717 58.11 9.91083 58.066 9.73465C58.0219 9.55848 58.0267 9.37363 58.0798 9.19996C58.1377 9.02223 58.2443 8.86431 58.3875 8.74412C58.5307 8.62392 58.7047 8.54627 58.8898 8.51996L64.5898 7.68996L67.0998 2.55996C67.1816 2.39089 67.3095 2.2483 67.4687 2.14853C67.6278 2.04876 67.8119 1.99585 67.9998 1.99585C68.1876 1.99585 68.3717 2.04876 68.5309 2.14853C68.69 2.2483 68.8179 2.39089 68.8998 2.55996L71.4398 7.67996L77.1398 8.50996C77.3248 8.53627 77.4988 8.61392 77.642 8.73412C77.7852 8.85431 77.8918 9.01223 77.9498 9.18996C78.0028 9.36363 78.0076 9.54848 77.9635 9.72465C77.9195 9.90083 77.8283 10.0617 77.6998 10.19L73.5798 14.19L74.5798 19.82C74.6155 20.0074 74.5968 20.2012 74.5259 20.3784C74.455 20.5556 74.3349 20.7088 74.1798 20.82C73.9987 20.9469 73.7806 21.0102 73.5598 21Z" fill="#FFC042"/>
<path d="M101.56 21C101.4 21.0006 101.242 20.9629 101.1 20.89L95.9998 18.22L90.8998 20.89C90.7342 20.977 90.5474 21.0159 90.3608 21.0022C90.1742 20.9884 89.9952 20.9226 89.8442 20.8122C89.6931 20.7017 89.5761 20.5511 89.5064 20.3775C89.4367 20.2039 89.417 20.0142 89.4498 19.83L90.4498 14.2L86.3298 10.2C86.2012 10.0717 86.11 9.91083 86.066 9.73465C86.0219 9.55848 86.0267 9.37363 86.0798 9.19996C86.1377 9.02223 86.2443 8.86431 86.3875 8.74412C86.5307 8.62392 86.7047 8.54627 86.8898 8.51996L92.5898 7.68996L95.0998 2.55996C95.1816 2.39089 95.3095 2.2483 95.4687 2.14853C95.6278 2.04876 95.8119 1.99585 95.9998 1.99585C96.1876 1.99585 96.3717 2.04876 96.5309 2.14853C96.69 2.2483 96.8179 2.39089 96.8998 2.55996L99.4398 7.67996L105.14 8.50996C105.325 8.53627 105.499 8.61392 105.642 8.73412C105.785 8.85431 105.892 9.01223 105.95 9.18996C106.003 9.36363 106.008 9.54848 105.964 9.72465C105.919 9.90083 105.828 10.0617 105.7 10.19L101.58 14.19L102.58 19.82C102.615 20.0074 102.597 20.2012 102.526 20.3784C102.455 20.5556 102.335 20.7088 102.18 20.82C101.999 20.9469 101.781 21.0102 101.56 21Z" fill="#FFC042"/>
<path d="M129.56 21C129.4 21.0006 129.242 20.9629 129.1 20.89L124 18.22L118.9 20.89C118.734 20.977 118.547 21.0159 118.361 21.0022C118.174 20.9884 117.995 20.9226 117.844 20.8122C117.693 20.7017 117.576 20.5511 117.506 20.3775C117.437 20.2039 117.417 20.0142 117.45 19.83L118.45 14.2L114.33 10.2C114.201 10.0717 114.11 9.91083 114.066 9.73465C114.022 9.55848 114.027 9.37363 114.08 9.19996C114.138 9.02223 114.244 8.86431 114.388 8.74412C114.531 8.62392 114.705 8.54627 114.89 8.51996L120.59 7.68996L123.1 2.55996C123.182 2.39089 123.309 2.2483 123.469 2.14853C123.628 2.04876 123.812 1.99585 124 1.99585C124.188 1.99585 124.372 2.04876 124.531 2.14853C124.69 2.2483 124.818 2.39089 124.9 2.55996L127.44 7.67996L133.14 8.50996C133.325 8.53627 133.499 8.61392 133.642 8.73412C133.785 8.85431 133.892 9.01223 133.95 9.18996C134.003 9.36363 134.008 9.54848 133.964 9.72465C133.919 9.90083 133.828 10.0617 133.7 10.19L129.58 14.19L130.58 19.82C130.615 20.0074 130.597 20.2012 130.526 20.3784C130.455 20.5556 130.335 20.7088 130.18 20.82C129.999 20.9469 129.781 21.0102 129.56 21Z" fill="#FFC042"/>
</svg>
