<svg width="236" height="36" viewBox="0 0 236 36" fill="none" xmlns="http://www.w3.org/2000/svg">
<path d="M2.33789 16.1714V33.253C2.33789 33.4789 2.52302 33.6655 2.74735 33.6383C4.96157 33.3705 4.96959 30.9153 5.11541 30.164C5.23885 29.5279 5.78407 28.6269 6.04124 28.2559C8.21542 25.5438 11.7067 24.8084 13.516 24.7576C13.7368 24.7514 13.9109 24.9331 13.9109 25.1539V33.253C13.9109 33.4789 14.0916 33.6621 14.3176 33.6621H27.0269C31.3475 33.6621 33.6621 28.0969 33.6621 25.2348V9.4287C33.6621 8.93528 32.4823 8.72501 32.2172 9.14116C30.7447 11.4525 28.7374 12.0748 27.6441 12.0373H10.6704C9.15943 12.0373 7.84822 12.4784 6.96971 12.9108C6.63117 13.0774 6.18895 12.7755 6.29111 12.4123C7.6817 7.46837 11.4914 5.51801 13.448 5.51801C19.7745 5.51801 29.002 5.35901 30.7303 5.35901C32.2444 5.35901 32.7636 3.81304 32.869 2.75277C32.8916 2.5254 32.7034 2.34086 32.4749 2.34448L12.8307 2.6559C6.50416 2.6559 2.33789 7.7441 2.33789 16.1714Z" fill="#494949"/>
<path d="M5 18.5V23.5027C5 23.8685 5.46672 24.0758 5.77163 23.8737C9.08792 21.6748 16.5742 21.5 21.5 21.5C25.5061 21.5 26.7391 17.1336 26.9665 14.9286C26.9905 14.6957 26.8054 14.5 26.5712 14.5H11C6.95877 14.5 5 17.1034 5 18.5Z" fill="white"/>
<path d="M45.728 26.5V9.04545H57.2848V12.0881H49.4183V16.2472H56.5178V19.2898H49.4183V26.5H45.728ZM64.7038 26.7557C63.3572 26.7557 62.1982 26.483 61.2266 25.9375C60.2607 25.3864 59.5163 24.608 58.9936 23.6023C58.4709 22.5909 58.2095 21.3949 58.2095 20.0142C58.2095 18.6676 58.4709 17.4858 58.9936 16.4688C59.5163 15.4517 60.2521 14.6591 61.201 14.0909C62.1555 13.5227 63.2749 13.2386 64.5589 13.2386C65.4226 13.2386 66.2266 13.3778 66.9709 13.6562C67.7209 13.929 68.3743 14.3409 68.9311 14.892C69.4936 15.4432 69.9311 16.1364 70.2436 16.9716C70.5561 17.8011 70.7124 18.7727 70.7124 19.8864V20.8835H59.6584V18.6335H67.2947C67.2947 18.1108 67.1811 17.6477 66.9538 17.2443C66.7266 16.8409 66.4112 16.5256 66.0078 16.2983C65.6101 16.0653 65.147 15.9489 64.6186 15.9489C64.0675 15.9489 63.5788 16.0767 63.1527 16.3324C62.7322 16.5824 62.4027 16.9205 62.1641 17.3466C61.9254 17.767 61.8033 18.2358 61.7976 18.7528V20.892C61.7976 21.5398 61.9169 22.0994 62.1555 22.571C62.3999 23.0426 62.7436 23.4062 63.1868 23.6619C63.63 23.9176 64.1555 24.0455 64.7635 24.0455C65.1669 24.0455 65.5362 23.9886 65.8714 23.875C66.2067 23.7614 66.4936 23.5909 66.7322 23.3636C66.9709 23.1364 67.1527 22.858 67.2777 22.5284L70.6357 22.75C70.4652 23.5568 70.1158 24.2614 69.5874 24.8636C69.0646 25.4602 68.3885 25.9261 67.5589 26.2614C66.7351 26.5909 65.7834 26.7557 64.7038 26.7557ZM76.8146 26.7472C75.9794 26.7472 75.2351 26.6023 74.5817 26.3125C73.9283 26.017 73.4112 25.5824 73.0305 25.0085C72.6555 24.429 72.468 23.7074 72.468 22.8438C72.468 22.1165 72.6016 21.5057 72.8686 21.0114C73.1357 20.517 73.4993 20.1193 73.9595 19.8182C74.4197 19.517 74.9425 19.2898 75.5277 19.1364C76.1186 18.983 76.7379 18.875 77.3857 18.8125C78.147 18.733 78.7607 18.6591 79.2266 18.5909C79.6925 18.517 80.0305 18.4091 80.2408 18.267C80.451 18.125 80.5561 17.9148 80.5561 17.6364V17.5852C80.5561 17.0455 80.3857 16.6278 80.0447 16.3324C79.7095 16.0369 79.2322 15.8892 78.6129 15.8892C77.9595 15.8892 77.4396 16.0341 77.0533 16.3239C76.6669 16.608 76.4112 16.9659 76.2862 17.3977L72.9283 17.125C73.0987 16.3295 73.4339 15.642 73.9339 15.0625C74.4339 14.4773 75.0788 14.0284 75.8686 13.7159C76.6641 13.3977 77.5845 13.2386 78.63 13.2386C79.3572 13.2386 80.0533 13.3239 80.718 13.4943C81.3885 13.6648 81.9822 13.929 82.4993 14.2869C83.022 14.6449 83.4339 15.1051 83.7351 15.6676C84.0362 16.2244 84.1868 16.892 84.1868 17.6705V26.5H80.7436V24.6847H80.6413C80.4311 25.0938 80.1499 25.4545 79.7976 25.767C79.4453 26.0739 79.022 26.3153 78.5277 26.4915C78.0334 26.6619 77.4624 26.7472 76.8146 26.7472ZM77.8544 24.2415C78.3885 24.2415 78.8601 24.1364 79.2692 23.9261C79.6783 23.7102 79.9993 23.4205 80.2322 23.0568C80.4652 22.6932 80.5817 22.2812 80.5817 21.821V20.4318C80.468 20.5057 80.3118 20.5739 80.1129 20.6364C79.9197 20.6932 79.701 20.7472 79.4567 20.7983C79.2124 20.8437 78.968 20.8864 78.7237 20.9261C78.4794 20.9602 78.2578 20.9915 78.0589 21.0199C77.6328 21.0824 77.2607 21.1818 76.9425 21.3182C76.6243 21.4545 76.3771 21.6392 76.201 21.8722C76.0249 22.0994 75.9368 22.3835 75.9368 22.7244C75.9368 23.2188 76.1158 23.5966 76.4737 23.858C76.8374 24.1136 77.2976 24.2415 77.8544 24.2415ZM97.8956 17.142L94.5717 17.3466C94.5149 17.0625 94.3928 16.8068 94.2053 16.5795C94.0178 16.3466 93.7706 16.1619 93.4638 16.0256C93.1626 15.8835 92.8018 15.8125 92.3814 15.8125C91.8189 15.8125 91.3445 15.9318 90.9581 16.1705C90.5717 16.4034 90.3786 16.7159 90.3786 17.108C90.3786 17.4205 90.5036 17.6847 90.7536 17.9006C91.0036 18.1165 91.4325 18.2898 92.0405 18.4205L94.4098 18.8977C95.6825 19.1591 96.6314 19.5795 97.2564 20.1591C97.8814 20.7386 98.1939 21.5 98.1939 22.4432C98.1939 23.3011 97.9411 24.054 97.4354 24.7017C96.9354 25.3494 96.2479 25.8551 95.3729 26.2188C94.5036 26.5767 93.5007 26.7557 92.3643 26.7557C90.6314 26.7557 89.2507 26.3949 88.2223 25.6733C87.1996 24.946 86.6001 23.9574 86.424 22.7074L89.995 22.5199C90.103 23.0483 90.3643 23.4517 90.7791 23.7301C91.1939 24.0028 91.7251 24.1392 92.3729 24.1392C93.0092 24.1392 93.5206 24.017 93.907 23.7727C94.299 23.5227 94.4979 23.2017 94.5036 22.8097C94.4979 22.4801 94.3587 22.2102 94.0859 22C93.8132 21.7841 93.3928 21.6193 92.8246 21.5057L90.5575 21.054C89.2791 20.7983 88.3274 20.3551 87.7024 19.7244C87.0831 19.0937 86.7734 18.2898 86.7734 17.3125C86.7734 16.4716 87.0007 15.7472 87.4553 15.1392C87.9155 14.5312 88.5604 14.0625 89.3899 13.733C90.2251 13.4034 91.2024 13.2386 92.3217 13.2386C93.9751 13.2386 95.2763 13.5881 96.2251 14.2869C97.1797 14.9858 97.7365 15.9375 97.8956 17.142ZM107.443 13.4091V16.1364H99.5597V13.4091H107.443ZM101.349 10.2727H104.98V22.4773C104.98 22.8125 105.031 23.0739 105.134 23.2614C105.236 23.4432 105.378 23.571 105.56 23.6449C105.747 23.7187 105.963 23.7557 106.207 23.7557C106.378 23.7557 106.548 23.7415 106.719 23.7131C106.889 23.679 107.02 23.6534 107.111 23.6364L107.682 26.3381C107.5 26.3949 107.244 26.4602 106.915 26.5341C106.585 26.6136 106.185 26.6619 105.713 26.679C104.838 26.7131 104.071 26.5966 103.412 26.3295C102.759 26.0625 102.25 25.6477 101.886 25.0852C101.523 24.5227 101.344 23.8125 101.349 22.9545V10.2727ZM119.096 26.7472C118.261 26.7472 117.516 26.6023 116.863 26.3125C116.21 26.017 115.692 25.5824 115.312 25.0085C114.937 24.429 114.749 23.7074 114.749 22.8438C114.749 22.1165 114.883 21.5057 115.15 21.0114C115.417 20.517 115.781 20.1193 116.241 19.8182C116.701 19.517 117.224 19.2898 117.809 19.1364C118.4 18.983 119.019 18.875 119.667 18.8125C120.428 18.733 121.042 18.6591 121.508 18.5909C121.974 18.517 122.312 18.4091 122.522 18.267C122.732 18.125 122.837 17.9148 122.837 17.6364V17.5852C122.837 17.0455 122.667 16.6278 122.326 16.3324C121.991 16.0369 121.513 15.8892 120.894 15.8892C120.241 15.8892 119.721 16.0341 119.335 16.3239C118.948 16.608 118.692 16.9659 118.567 17.3977L115.21 17.125C115.38 16.3295 115.715 15.642 116.215 15.0625C116.715 14.4773 117.36 14.0284 118.15 13.7159C118.945 13.3977 119.866 13.2386 120.911 13.2386C121.638 13.2386 122.335 13.3239 122.999 13.4943C123.67 13.6648 124.263 13.929 124.781 14.2869C125.303 14.6449 125.715 15.1051 126.016 15.6676C126.317 16.2244 126.468 16.892 126.468 17.6705V26.5H123.025V24.6847H122.923C122.712 25.0938 122.431 25.4545 122.079 25.767C121.727 26.0739 121.303 26.3153 120.809 26.4915C120.315 26.6619 119.744 26.7472 119.096 26.7472ZM120.136 24.2415C120.67 24.2415 121.141 24.1364 121.55 23.9261C121.96 23.7102 122.281 23.4205 122.513 23.0568C122.746 22.6932 122.863 22.2812 122.863 21.821V20.4318C122.749 20.5057 122.593 20.5739 122.394 20.6364C122.201 20.6932 121.982 20.7472 121.738 20.7983C121.494 20.8437 121.249 20.8864 121.005 20.9261C120.761 20.9602 120.539 20.9915 120.34 21.0199C119.914 21.0824 119.542 21.1818 119.224 21.3182C118.906 21.4545 118.658 21.6392 118.482 21.8722C118.306 22.0994 118.218 22.3835 118.218 22.7244C118.218 23.2188 118.397 23.5966 118.755 23.858C119.119 24.1136 119.579 24.2415 120.136 24.2415ZM132.915 18.9318V26.5H129.285V13.4091H132.745V15.7188H132.898C133.188 14.9574 133.674 14.3551 134.356 13.9119C135.038 13.4631 135.864 13.2386 136.836 13.2386C137.745 13.2386 138.538 13.4375 139.214 13.8352C139.89 14.233 140.415 14.8011 140.79 15.5398C141.165 16.2727 141.353 17.1477 141.353 18.1648V26.5H137.722V18.8125C137.728 18.0114 137.523 17.3864 137.109 16.9375C136.694 16.483 136.123 16.2557 135.396 16.2557C134.907 16.2557 134.475 16.3608 134.1 16.571C133.731 16.7812 133.441 17.0881 133.231 17.4915C133.026 17.8892 132.921 18.3693 132.915 18.9318ZM149.038 26.7131C148.044 26.7131 147.143 26.4574 146.337 25.946C145.536 25.429 144.899 24.6705 144.428 23.6705C143.962 22.6648 143.729 21.4318 143.729 19.9716C143.729 18.4716 143.97 17.2244 144.453 16.2301C144.936 15.2301 145.578 14.483 146.379 13.9886C147.186 13.4886 148.07 13.2386 149.03 13.2386C149.763 13.2386 150.374 13.3636 150.862 13.6136C151.357 13.858 151.754 14.1648 152.055 14.5341C152.362 14.8977 152.595 15.2557 152.754 15.608H152.865V9.04545H156.487V26.5H152.908V24.4034H152.754C152.584 24.767 152.342 25.1278 152.03 25.4858C151.723 25.8381 151.322 26.1307 150.828 26.3636C150.339 26.5966 149.743 26.7131 149.038 26.7131ZM150.189 23.8239C150.774 23.8239 151.268 23.6648 151.672 23.3466C152.081 23.0227 152.393 22.571 152.609 21.9915C152.831 21.4119 152.942 20.733 152.942 19.9545C152.942 19.1761 152.834 18.5 152.618 17.9261C152.402 17.3523 152.089 16.9091 151.68 16.5966C151.271 16.2841 150.774 16.1278 150.189 16.1278C149.592 16.1278 149.089 16.2898 148.68 16.6136C148.271 16.9375 147.962 17.3864 147.751 17.9602C147.541 18.5341 147.436 19.1989 147.436 19.9545C147.436 20.7159 147.541 21.3892 147.751 21.9744C147.967 22.554 148.277 23.0085 148.68 23.3381C149.089 23.6619 149.592 23.8239 150.189 23.8239ZM165.095 26.5V9.04545H176.652V12.0881H168.786V16.2472H175.885V19.2898H168.786V26.5H165.095ZM182.697 9.04545V26.5H179.066V9.04545H182.697ZM189.338 26.7472C188.503 26.7472 187.759 26.6023 187.105 26.3125C186.452 26.017 185.935 25.5824 185.554 25.0085C185.179 24.429 184.991 23.7074 184.991 22.8438C184.991 22.1165 185.125 21.5057 185.392 21.0114C185.659 20.517 186.023 20.1193 186.483 19.8182C186.943 19.517 187.466 19.2898 188.051 19.1364C188.642 18.983 189.261 18.875 189.909 18.8125C190.67 18.733 191.284 18.6591 191.75 18.5909C192.216 18.517 192.554 18.4091 192.764 18.267C192.974 18.125 193.08 17.9148 193.08 17.6364V17.5852C193.08 17.0455 192.909 16.6278 192.568 16.3324C192.233 16.0369 191.756 15.8892 191.136 15.8892C190.483 15.8892 189.963 16.0341 189.577 16.3239C189.19 16.608 188.935 16.9659 188.81 17.3977L185.452 17.125C185.622 16.3295 185.957 15.642 186.457 15.0625C186.957 14.4773 187.602 14.0284 188.392 13.7159C189.188 13.3977 190.108 13.2386 191.153 13.2386C191.881 13.2386 192.577 13.3239 193.241 13.4943C193.912 13.6648 194.506 13.929 195.023 14.2869C195.545 14.6449 195.957 15.1051 196.259 15.6676C196.56 16.2244 196.71 16.892 196.71 17.6705V26.5H193.267V24.6847H193.165C192.955 25.0938 192.673 25.4545 192.321 25.767C191.969 26.0739 191.545 26.3153 191.051 26.4915C190.557 26.6619 189.986 26.7472 189.338 26.7472ZM190.378 24.2415C190.912 24.2415 191.384 24.1364 191.793 23.9261C192.202 23.7102 192.523 23.4205 192.756 23.0568C192.989 22.6932 193.105 22.2812 193.105 21.821V20.4318C192.991 20.5057 192.835 20.5739 192.636 20.6364C192.443 20.6932 192.224 20.7472 191.98 20.7983C191.736 20.8437 191.491 20.8864 191.247 20.9261C191.003 20.9602 190.781 20.9915 190.582 21.0199C190.156 21.0824 189.784 21.1818 189.466 21.3182C189.148 21.4545 188.901 21.6392 188.724 21.8722C188.548 22.0994 188.46 22.3835 188.46 22.7244C188.46 23.2188 188.639 23.5966 188.997 23.858C189.361 24.1136 189.821 24.2415 190.378 24.2415ZM211.263 13.4091L206.686 26.5H202.595L198.018 13.4091H201.854L204.572 22.7756H204.709L207.419 13.4091H211.263ZM218.614 26.7557C217.29 26.7557 216.145 26.4744 215.179 25.9119C214.219 25.3437 213.477 24.554 212.955 23.5426C212.432 22.5256 212.17 21.3466 212.17 20.0057C212.17 18.6534 212.432 17.4716 212.955 16.4602C213.477 15.4432 214.219 14.6534 215.179 14.0909C216.145 13.5227 217.29 13.2386 218.614 13.2386C219.938 13.2386 221.08 13.5227 222.04 14.0909C223.006 14.6534 223.75 15.4432 224.273 16.4602C224.795 17.4716 225.057 18.6534 225.057 20.0057C225.057 21.3466 224.795 22.5256 224.273 23.5426C223.75 24.554 223.006 25.3437 222.04 25.9119C221.08 26.4744 219.938 26.7557 218.614 26.7557ZM218.631 23.9432C219.233 23.9432 219.736 23.7727 220.139 23.4318C220.543 23.0852 220.847 22.6136 221.051 22.017C221.261 21.4205 221.366 20.7415 221.366 19.9801C221.366 19.2188 221.261 18.5398 221.051 17.9432C220.847 17.3466 220.543 16.875 220.139 16.5284C219.736 16.1818 219.233 16.0085 218.631 16.0085C218.023 16.0085 217.511 16.1818 217.097 16.5284C216.688 16.875 216.378 17.3466 216.168 17.9432C215.963 18.5398 215.861 19.2188 215.861 19.9801C215.861 20.7415 215.963 21.4205 216.168 22.017C216.378 22.6136 216.688 23.0852 217.097 23.4318C217.511 23.7727 218.023 23.9432 218.631 23.9432ZM227.418 26.5V13.4091H230.938V15.6932H231.074C231.313 14.8807 231.713 14.267 232.276 13.8523C232.838 13.4318 233.486 13.2216 234.219 13.2216C234.401 13.2216 234.597 13.233 234.807 13.2557C235.017 13.2784 235.202 13.3097 235.361 13.3494V16.571C235.19 16.5199 234.955 16.4744 234.653 16.4347C234.352 16.3949 234.077 16.375 233.827 16.375C233.293 16.375 232.815 16.4915 232.395 16.7244C231.98 16.9517 231.651 17.2699 231.406 17.679C231.168 18.0881 231.048 18.5597 231.048 19.0938V26.5H227.418Z" fill="#494949"/>
</svg>
