<svg width="120" height="92" viewBox="0 0 120 92" fill="none" xmlns="http://www.w3.org/2000/svg">
<path d="M78.0897 14.186C77.3812 14.186 76.7262 14.5595 76.3692 15.167L63.7559 36.6215C63.3963 37.2332 63.3933 37.9895 63.7487 38.6041C64.1039 39.2185 64.7629 39.5975 65.4764 39.5975H90.7029C91.4164 39.5975 92.0755 39.2185 92.4306 38.6041C92.786 37.9895 92.7831 37.2335 92.4234 36.6215L79.8104 15.167C79.4532 14.5595 78.7981 14.186 78.0897 14.186ZM68.9464 35.6405L78.0897 20.0882L87.2327 35.6405H68.9464Z" fill="white"/>
<path d="M103.15 43.1263H56.4996L78.0896 6.40248L94.8047 34.8342C95.3594 35.778 96.5799 36.0961 97.5296 35.5453C98.4797 34.9945 98.8004 33.783 98.2455 32.8394L79.8101 1.48102C79.8045 1.47153 79.7973 1.46335 79.7917 1.45385C79.7583 1.39898 79.7222 1.34623 79.6836 1.29479C79.672 1.27922 79.6608 1.26366 79.6488 1.24836C79.6002 1.18769 79.549 1.12939 79.4937 1.07479C79.4873 1.06846 79.4802 1.06292 79.4735 1.05659C79.4241 1.00911 79.3718 0.964527 79.3176 0.922321C79.3003 0.908868 79.2825 0.895944 79.2647 0.883282C79.2151 0.847144 79.1641 0.813642 79.1112 0.781988C79.0966 0.773283 79.0825 0.764051 79.0676 0.755609C78.9983 0.716833 78.9268 0.681221 78.8527 0.650885C78.8498 0.64983 78.8469 0.648775 78.844 0.64772C78.7749 0.619758 78.7037 0.596019 78.6309 0.575707C78.6115 0.570168 78.5922 0.565684 78.5725 0.560935C78.5135 0.546427 78.4538 0.534556 78.3927 0.525324C78.3717 0.522158 78.351 0.518464 78.33 0.515827C78.2511 0.50633 78.1711 0.5 78.0893 0.5H35.8268C35.1183 0.5 34.4633 0.873522 34.1063 1.48102L9.04604 44.107C8.68638 44.7188 8.68346 45.475 9.03887 46.0897C9.39402 46.704 10.0531 47.0831 10.7665 47.0831H33.7538L33.7599 47.0833L33.766 47.0831H43.2993L43.3054 47.0833L43.3115 47.0831H103.15C104.251 47.0831 105.143 46.1973 105.143 45.1047C105.143 44.0121 104.25 43.1263 103.15 43.1263ZM51.8858 43.1263H46.7689L65.2118 11.6117C65.7645 10.6669 65.4415 9.45607 64.4903 8.90713C63.5393 8.35767 62.3193 8.67869 61.7668 9.62358L42.1605 43.1263H37.2235L59.8532 4.45679H74.6196L51.8858 43.1263ZM36.9703 4.45679H46.026L28.6406 34.1647C28.0879 35.1095 28.4109 36.3203 29.3621 36.8693C29.6771 37.051 30.0214 37.1375 30.3614 37.1375C31.0478 37.1375 31.7161 36.7849 32.0856 36.1528L50.6347 4.45679H55.245L32.615 43.1263H14.2365L36.9703 4.45679Z" fill="white"/>
<path d="M14.0127 73.8742V53.3017H29.4004V57.5267H19.2511V61.4267H28.0581V65.6517H19.2511V69.6492H29.4004V73.8742H14.0127Z" fill="white"/>
<path d="M49.3654 69.4542V73.8742H34.305V53.3017H39.5434V69.4542H49.3654Z" fill="white"/>
<path d="M59.1963 73.8742H53.9579V53.3017H59.1963V73.8742Z" fill="white"/>
<path d="M69.682 73.8742V57.6892H63.7888V53.3017H80.8135V57.6892H74.9204V73.8742H69.682Z" fill="white"/>
<path d="M85.3984 73.8742V53.3017H100.786V57.5267H90.6368V61.4267H99.4438V65.6517H90.6368V69.6492H100.786V73.8742H85.3984Z" fill="white"/>
<path d="M2.7938 91.344H0V80.372H5.2733C6.65857 80.372 7.6655 80.684 8.2941 81.308C8.93435 81.9204 9.25447 82.8276 9.25447 84.0293C9.25447 84.9307 9.02748 85.7049 8.57348 86.352C8.11949 86.9876 7.51999 87.3862 6.77497 87.548L6.75751 87.6C7.04853 87.7849 7.36866 88.0911 7.71788 88.5187C8.06711 88.9462 8.41051 89.4142 8.7481 89.9227C9.09732 90.4196 9.40581 90.8876 9.67354 91.3267V91.344H6.42575L4.53993 88.5707C4.37696 88.328 4.24309 88.1547 4.13832 88.0507C4.04519 87.9467 3.92879 87.8831 3.7891 87.86C3.66105 87.8369 3.45151 87.8253 3.16049 87.8253H2.7938V91.344ZM4.81931 82.6253H2.7938V85.572H4.81931C5.40135 85.572 5.80296 85.4565 6.02414 85.2253C6.25696 84.9942 6.37336 84.6187 6.37336 84.0987C6.37336 83.5787 6.25696 83.2031 6.02414 82.972C5.80296 82.7409 5.40135 82.6253 4.81931 82.6253Z" fill="white"/>
<path d="M12.1274 85.8493C12.1274 84.4511 12.2846 83.3418 12.5989 82.5213C12.9248 81.7009 13.4777 81.1116 14.2577 80.7533C15.0493 80.3951 16.1493 80.216 17.5579 80.216C18.6172 80.216 19.4961 80.3142 20.1945 80.5107C20.893 80.7071 21.4459 81.0249 21.8533 81.464C22.2608 81.9031 22.546 82.4867 22.7089 83.2147C22.8835 83.9311 22.9708 84.8093 22.9708 85.8493C22.9708 86.9009 22.8835 87.7907 22.7089 88.5187C22.546 89.2351 22.2608 89.8129 21.8533 90.252C21.4459 90.6911 20.893 91.0089 20.1945 91.2053C19.4961 91.4018 18.6172 91.5 17.5579 91.5C16.4985 91.5 15.6197 91.4018 14.9212 91.2053C14.2228 91.0089 13.6698 90.6911 13.2624 90.252C12.855 89.8129 12.5639 89.2351 12.3893 88.5187C12.2147 87.7907 12.1274 86.9009 12.1274 85.8493ZM17.5579 89.0733C18.3029 89.0733 18.8616 88.9809 19.2341 88.796C19.6066 88.6111 19.8569 88.2876 19.985 87.8253C20.113 87.3516 20.177 86.6929 20.177 85.8493C20.177 85.0173 20.113 84.3702 19.985 83.908C19.8569 83.4458 19.6066 83.1222 19.2341 82.9373C18.8616 82.7409 18.3029 82.6427 17.5579 82.6427C16.8245 82.6427 16.2657 82.7409 15.8816 82.9373C15.5091 83.1222 15.253 83.4458 15.1133 83.908C14.9852 84.3702 14.9212 85.0173 14.9212 85.8493C14.9212 86.6929 14.9852 87.3516 15.1133 87.8253C15.253 88.2876 15.5091 88.6111 15.8816 88.796C16.2657 88.9809 16.8245 89.0733 17.5579 89.0733Z" fill="white"/>
<path d="M25.593 85.8493C25.593 84.4511 25.7502 83.3418 26.0645 82.5213C26.3904 81.7009 26.9434 81.1116 27.7233 80.7533C28.5149 80.3951 29.615 80.216 31.0235 80.216C32.0828 80.216 32.9617 80.3142 33.6601 80.5107C34.3586 80.7071 34.9115 81.0249 35.319 81.464C35.7264 81.9031 36.0116 82.4867 36.1746 83.2147C36.3492 83.9311 36.4365 84.8093 36.4365 85.8493C36.4365 86.9009 36.3492 87.7907 36.1746 88.5187C36.0116 89.2351 35.7264 89.8129 35.319 90.252C34.9115 90.6911 34.3586 91.0089 33.6601 91.2053C32.9617 91.4018 32.0828 91.5 31.0235 91.5C29.9642 91.5 29.0853 91.4018 28.3868 91.2053C27.6884 91.0089 27.1355 90.6911 26.728 90.252C26.3206 89.8129 26.0296 89.2351 25.855 88.5187C25.6803 87.7907 25.593 86.9009 25.593 85.8493ZM31.0235 89.0733C31.7685 89.0733 32.3273 88.9809 32.6998 88.796C33.0723 88.6111 33.3226 88.2876 33.4506 87.8253C33.5787 87.3516 33.6427 86.6929 33.6427 85.8493C33.6427 85.0173 33.5787 84.3702 33.4506 83.908C33.3226 83.4458 33.0723 83.1222 32.6998 82.9373C32.3273 82.7409 31.7685 82.6427 31.0235 82.6427C30.2901 82.6427 29.7314 82.7409 29.3472 82.9373C28.9747 83.1222 28.7186 83.4458 28.5789 83.908C28.4509 84.3702 28.3868 85.0173 28.3868 85.8493C28.3868 86.6929 28.4509 87.3516 28.5789 87.8253C28.7186 88.2876 28.9747 88.6111 29.3472 88.796C29.7314 88.9809 30.2901 89.0733 31.0235 89.0733Z" fill="white"/>
<path d="M42.2017 91.344H39.4079V80.372H47.6147V82.6253H42.2017V85.1387H47.2655V87.392H42.2017V91.344Z" fill="white"/>
<path d="M67.9349 80.372H70.781L68.4412 91.344H65.0363C64.6754 90.1076 64.3611 88.9 64.0934 87.7213C63.8373 86.5427 63.5928 85.2831 63.36 83.9427H63.3251C63.0573 85.2831 62.7896 86.5427 62.5219 87.7213C62.2658 88.9 61.9747 90.1076 61.6488 91.344H58.2438L55.904 80.372H58.7502C58.9248 81.1809 59.082 81.9724 59.2217 82.7467C59.3614 83.5209 59.4952 84.3124 59.6233 85.1213C59.763 85.9187 59.9027 86.7853 60.0424 87.7213H60.0773C60.2519 86.7853 60.4207 85.9187 60.5837 85.1213C60.7466 84.3124 60.9154 83.5209 61.09 82.7467C61.2646 81.9724 61.4509 81.1809 61.6488 80.372H65.0363C65.304 81.5969 65.5659 82.8218 65.822 84.0467C66.0898 85.2716 66.3517 86.4965 66.6078 87.7213H66.6427C66.8639 86.4965 67.0792 85.2716 67.2888 84.0467C67.4983 82.8218 67.7137 81.5969 67.9349 80.372Z" fill="white"/>
<path d="M73.044 85.8493C73.044 84.4511 73.2012 83.3418 73.5155 82.5213C73.8414 81.7009 74.3944 81.1116 75.1743 80.7533C75.9659 80.3951 77.066 80.216 78.4745 80.216C79.5338 80.216 80.4127 80.3142 81.1112 80.5107C81.8096 80.7071 82.3625 81.0249 82.77 81.464C83.1774 81.9031 83.4626 82.4867 83.6256 83.2147C83.8002 83.9311 83.8875 84.8093 83.8875 85.8493C83.8875 86.9009 83.8002 87.7907 83.6256 88.5187C83.4626 89.2351 83.1774 89.8129 82.77 90.252C82.3625 90.6911 81.8096 91.0089 81.1112 91.2053C80.4127 91.4018 79.5338 91.5 78.4745 91.5C77.4152 91.5 76.5363 91.4018 75.8378 91.2053C75.1394 91.0089 74.5865 90.6911 74.179 90.252C73.7716 89.8129 73.4806 89.2351 73.306 88.5187C73.1313 87.7907 73.044 86.9009 73.044 85.8493ZM78.4745 89.0733C79.2195 89.0733 79.7783 88.9809 80.1508 88.796C80.5233 88.6111 80.7736 88.2876 80.9016 87.8253C81.0297 87.3516 81.0937 86.6929 81.0937 85.8493C81.0937 85.0173 81.0297 84.3702 80.9016 83.908C80.7736 83.4458 80.5233 83.1222 80.1508 82.9373C79.7783 82.7409 79.2195 82.6427 78.4745 82.6427C77.7411 82.6427 77.1824 82.7409 76.7982 82.9373C76.4257 83.1222 76.1696 83.4458 76.0299 83.908C75.9019 84.3702 75.8378 85.0173 75.8378 85.8493C75.8378 86.6929 75.9019 87.3516 76.0299 87.8253C76.1696 88.2876 76.4257 88.6111 76.7982 88.796C77.1824 88.9809 77.7411 89.0733 78.4745 89.0733Z" fill="white"/>
<path d="M89.6527 91.344H86.8589V80.372H92.1322C93.5175 80.372 94.5244 80.684 95.153 81.308C95.7933 81.9204 96.1134 82.8276 96.1134 84.0293C96.1134 84.9307 95.8864 85.7049 95.4324 86.352C94.9784 86.9876 94.3789 87.3862 93.6339 87.548L93.6164 87.6C93.9074 87.7849 94.2276 88.0911 94.5768 88.5187C94.926 88.9462 95.2694 89.4142 95.607 89.9227C95.9562 90.4196 96.2647 90.8876 96.5324 91.3267V91.344H93.2847L91.3988 88.5707C91.2359 88.328 91.102 88.1547 90.9972 88.0507C90.9041 87.9467 90.7877 87.8831 90.648 87.86C90.52 87.8369 90.3104 87.8253 90.0194 87.8253H89.6527V91.344ZM91.6782 82.6253H89.6527V85.572H91.6782C92.2603 85.572 92.6619 85.4565 92.883 85.2253C93.1159 84.9942 93.2323 84.6187 93.2323 84.0987C93.2323 83.5787 93.1159 83.2031 92.883 82.972C92.6619 82.7409 92.2603 82.6253 91.6782 82.6253Z" fill="white"/>
<path d="M102.129 91.344H99.3355V80.372H102.129V84.9653C102.153 84.9653 102.17 84.9653 102.182 84.9653C102.298 84.9653 102.432 84.8729 102.583 84.688C102.746 84.5031 102.892 84.3182 103.02 84.1333L105.36 80.372H108.398V80.424L106.407 83.6133C106.233 83.9022 106.035 84.2142 105.814 84.5493C105.592 84.8729 105.371 85.1618 105.15 85.416C104.941 85.6587 104.754 85.8089 104.591 85.8667V85.9187C104.754 85.988 104.941 86.1382 105.15 86.3693C105.371 86.5889 105.592 86.8489 105.814 87.1493C106.046 87.4382 106.268 87.7271 106.477 88.016L108.8 91.292V91.344H105.587L103.404 88.016V88.0333C103.334 87.9178 103.224 87.7676 103.072 87.5827C102.933 87.3862 102.781 87.2071 102.618 87.0453C102.467 86.8836 102.333 86.8027 102.217 86.8027C102.193 86.8027 102.176 86.8027 102.164 86.8027C102.153 86.8027 102.141 86.8027 102.129 86.8027V91.344Z" fill="white"/>
<path d="M110.868 88.5187C111.38 88.692 111.939 88.8307 112.544 88.9347C113.161 89.0271 113.772 89.0733 114.377 89.0733C115.204 89.0733 115.815 89.0387 116.211 88.9693C116.618 88.8885 116.886 88.7671 117.014 88.6053C117.142 88.4436 117.206 88.2356 117.206 87.9813C117.206 87.7618 117.16 87.5884 117.067 87.4613C116.973 87.3342 116.793 87.236 116.525 87.1667C116.257 87.0858 115.862 87.0222 115.338 86.976L114.185 86.872C113.324 86.7911 112.643 86.612 112.142 86.3347C111.654 86.0573 111.304 85.6876 111.095 85.2253C110.897 84.7516 110.798 84.1853 110.798 83.5267C110.798 82.7409 110.955 82.1053 111.269 81.62C111.595 81.1347 112.119 80.7822 112.841 80.5627C113.563 80.3316 114.523 80.216 115.722 80.216C117.282 80.216 118.568 80.4182 119.581 80.8227L119.529 83.18L119.476 83.2493C118.324 82.8449 117.119 82.6427 115.862 82.6427C115.256 82.6427 114.791 82.6773 114.465 82.7467C114.139 82.8044 113.912 82.9027 113.784 83.0413C113.656 83.18 113.592 83.3764 113.592 83.6307C113.592 83.8849 113.632 84.0756 113.714 84.2027C113.807 84.3298 113.987 84.428 114.255 84.4973C114.523 84.5551 114.913 84.6129 115.425 84.6707L116.525 84.792C117.456 84.896 118.172 85.0809 118.673 85.3467C119.174 85.6124 119.517 85.9707 119.703 86.4213C119.901 86.8604 120 87.3978 120 88.0333C120 88.8076 119.831 89.4547 119.494 89.9747C119.168 90.4831 118.632 90.8644 117.887 91.1187C117.142 91.3729 116.147 91.5 114.901 91.5C114.086 91.5 113.353 91.4596 112.701 91.3787C112.049 91.2862 111.415 91.1649 110.798 91.0147V88.5707L110.868 88.5187Z" fill="white"/>
</svg>
