<svg width="89" height="68" viewBox="0 0 89 68" fill="none" xmlns="http://www.w3.org/2000/svg">
<path d="M57.9165 10.2269C57.3911 10.2269 56.9053 10.506 56.6405 10.9599L47.2856 26.9919C47.0189 27.449 47.0167 28.0141 47.2803 28.4734C47.5437 28.9325 48.0325 29.2157 48.5617 29.2157H67.2713C67.8005 29.2157 68.2893 28.9325 68.5527 28.4734C68.8163 28.0141 68.8141 27.4492 68.5474 26.9919L59.1927 10.9599C58.9278 10.506 58.4419 10.2269 57.9165 10.2269ZM51.1352 26.2588L57.9165 14.6373L64.6976 26.2588H51.1352Z" fill="#0C3C43"/>
<path d="M76.5028 31.8526H41.9038L57.9164 4.41065L70.3135 25.6563C70.7249 26.3616 71.6301 26.5993 72.3344 26.1877C73.0391 25.7761 73.2769 24.8708 72.8654 24.1657L59.1925 0.733071C59.1883 0.725975 59.183 0.719863 59.1789 0.712767C59.1541 0.671767 59.1273 0.632345 59.0987 0.593908C59.09 0.582278 59.0818 0.570648 59.0729 0.559215C59.0368 0.513878 58.9988 0.470317 58.9578 0.429514C58.9531 0.424783 58.9478 0.420644 58.9429 0.415913C58.9062 0.380432 58.8674 0.347119 58.8272 0.315581C58.8144 0.305528 58.8012 0.29587 58.788 0.286409C58.7512 0.259404 58.7133 0.23437 58.6741 0.210716C58.6633 0.204211 58.6529 0.197312 58.6418 0.191005C58.5904 0.162029 58.5374 0.135418 58.4825 0.11275C58.4803 0.111961 58.4781 0.111172 58.476 0.110384C58.4247 0.0894897 58.3719 0.0717504 58.3179 0.0565725C58.3036 0.0524331 58.2892 0.0490822 58.2746 0.0455341C58.2309 0.0346928 58.1865 0.0258222 58.1412 0.0189232C58.1257 0.0165578 58.1103 0.0137976 58.0947 0.0118264C58.0362 0.00473028 57.9769 0 57.9162 0H26.5715C26.0461 0 25.5603 0.279115 25.2955 0.733071L6.70915 32.5855C6.4424 33.0426 6.44023 33.6077 6.70383 34.067C6.96723 34.5261 7.45601 34.8093 7.98518 34.8093H25.0341L25.0386 34.8095L25.0431 34.8093H32.1136L32.1181 34.8095L32.1227 34.8093H76.5032C77.3194 34.8093 77.9808 34.1474 77.9808 33.331C77.9808 32.5145 77.319 31.8526 76.5028 31.8526ZM38.482 31.8526H34.687L48.3654 8.30327C48.7754 7.59721 48.5358 6.69245 47.8303 6.28225C47.125 5.87166 46.2201 6.11155 45.8104 6.81762L31.269 31.8526H27.6074L44.3911 2.95673H55.3429L38.482 31.8526ZM27.4197 2.95673H34.1359L21.2418 25.156C20.8318 25.8621 21.0714 26.7668 21.7769 27.177C22.0105 27.3128 22.2659 27.3775 22.518 27.3775C23.0271 27.3775 23.5228 27.114 23.7968 26.6417L37.5541 2.95673H40.9734L24.1895 31.8526H10.5587L27.4197 2.95673Z" fill="#0C3C43"/>
<path d="M10.3927 54.8291V39.4562H21.8053V42.6133H14.2779V45.5276H20.8097V48.6848H14.2779V51.6719H21.8053V54.8291H10.3927Z" fill="#0C3C43"/>
<path d="M36.6126 51.5262V54.8291H25.4429V39.4562H29.328V51.5262H36.6126Z" fill="#0C3C43"/>
<path d="M43.9039 54.8291H40.0188V39.4562H43.9039V54.8291Z" fill="#0C3C43"/>
<path d="M51.6808 54.8291V42.7348H47.31V39.4562H59.9367V42.7348H55.5659V54.8291H51.6808Z" fill="#0C3C43"/>
<path d="M63.3372 54.8291V39.4562H74.7497V42.6133H67.2223V45.5276H73.7542V48.6848H67.2223V51.6719H74.7497V54.8291H63.3372Z" fill="#0C3C43"/>
<path d="M2.07207 67.8834H0V59.6846H3.91103C4.93844 59.6846 5.68525 59.9177 6.15146 60.384C6.62631 60.8417 6.86374 61.5195 6.86374 62.4175C6.86374 63.091 6.69538 63.6696 6.35867 64.1531C6.02196 64.6281 5.57732 64.926 5.02477 65.0469L5.01182 65.0857C5.22766 65.2239 5.46509 65.4527 5.7241 65.7722C5.98311 66.0917 6.2378 66.4414 6.48817 66.8213C6.74718 67.1926 6.97597 67.5424 7.17455 67.8705V67.8834H4.76576L3.36712 65.8111C3.24624 65.6297 3.14696 65.5002 3.06926 65.4225C3.00019 65.3448 2.91385 65.2973 2.81025 65.28C2.71528 65.2627 2.55987 65.2541 2.34403 65.2541H2.07207V67.8834ZM3.57432 61.3684H2.07207V63.5703H3.57432C4.006 63.5703 4.30386 63.4839 4.4679 63.3112C4.64058 63.1385 4.72691 62.8579 4.72691 62.4693C4.72691 62.0808 4.64058 61.8001 4.4679 61.6274C4.30386 61.4547 4.006 61.3684 3.57432 61.3684Z" fill="#0C3C43"/>
<path d="M8.99449 63.7775C8.99449 62.7327 9.11104 61.9037 9.34415 61.2907C9.58589 60.6776 9.99599 60.2372 10.5744 59.9695C11.1615 59.7018 11.9774 59.568 13.0221 59.568C13.8077 59.568 14.4596 59.6414 14.9776 59.7882C15.4956 59.935 15.9057 60.1724 16.2079 60.5006C16.5101 60.8287 16.7216 61.2648 16.8425 61.8088C16.972 62.3441 17.0367 63.0004 17.0367 63.7775C17.0367 64.5633 16.972 65.2282 16.8425 65.7722C16.7216 66.3076 16.5101 66.7393 16.2079 67.0674C15.9057 67.3956 15.4956 67.633 14.9776 67.7798C14.4596 67.9266 13.8077 68 13.0221 68C12.2364 68 11.5846 67.9266 11.0666 67.7798C10.5485 67.633 10.1384 67.3956 9.83627 67.0674C9.53409 66.7393 9.31825 66.3076 9.18874 65.7722C9.05924 65.2282 8.99449 64.5633 8.99449 63.7775ZM13.0221 66.1867C13.5746 66.1867 13.989 66.1176 14.2653 65.9794C14.5416 65.8413 14.7272 65.5995 14.8222 65.2541C14.9172 64.9001 14.9646 64.4079 14.9646 63.7775C14.9646 63.1558 14.9172 62.6723 14.8222 62.3269C14.7272 61.9815 14.5416 61.7397 14.2653 61.6015C13.989 61.4547 13.5746 61.3813 13.0221 61.3813C12.4782 61.3813 12.0637 61.4547 11.7788 61.6015C11.5026 61.7397 11.3126 61.9815 11.209 62.3269C11.114 62.6723 11.0666 63.1558 11.0666 63.7775C11.0666 64.4079 11.114 64.9001 11.209 65.2541C11.3126 65.5995 11.5026 65.8413 11.7788 65.9794C12.0637 66.1176 12.4782 66.1867 13.0221 66.1867Z" fill="#0C3C43"/>
<path d="M18.9815 63.7775C18.9815 62.7327 19.0981 61.9037 19.3312 61.2907C19.5729 60.6776 19.983 60.2372 20.5615 59.9695C21.1485 59.7018 21.9644 59.568 23.0091 59.568C23.7948 59.568 24.4466 59.6414 24.9646 59.7882C25.4826 59.935 25.8927 60.1724 26.1949 60.5006C26.4971 60.8287 26.7086 61.2648 26.8295 61.8088C26.959 62.3441 27.0237 63.0004 27.0237 63.7775C27.0237 64.5633 26.959 65.2282 26.8295 65.7722C26.7086 66.3076 26.4971 66.7393 26.1949 67.0674C25.8927 67.3956 25.4826 67.633 24.9646 67.7798C24.4466 67.9266 23.7948 68 23.0091 68C22.2234 68 21.5716 67.9266 21.0536 67.7798C20.5356 67.633 20.1255 67.3956 19.8233 67.0674C19.5211 66.7393 19.3053 66.3076 19.1758 65.7722C19.0463 65.2282 18.9815 64.5633 18.9815 63.7775ZM23.0091 66.1867C23.5616 66.1867 23.9761 66.1176 24.2523 65.9794C24.5286 65.8413 24.7142 65.5995 24.8092 65.2541C24.9042 64.9001 24.9517 64.4079 24.9517 63.7775C24.9517 63.1558 24.9042 62.6723 24.8092 62.3269C24.7142 61.9815 24.5286 61.7397 24.2523 61.6015C23.9761 61.4547 23.5616 61.3813 23.0091 61.3813C22.4652 61.3813 22.0508 61.4547 21.7659 61.6015C21.4896 61.7397 21.2996 61.9815 21.196 62.3269C21.1011 62.6723 21.0536 63.1558 21.0536 63.7775C21.0536 64.4079 21.1011 64.9001 21.196 65.2541C21.2996 65.5995 21.4896 65.8413 21.7659 65.9794C22.0508 66.1176 22.4652 66.1867 23.0091 66.1867Z" fill="#0C3C43"/>
<path d="M31.2996 67.8834H29.2275V59.6846H35.3142V61.3684H31.2996V63.2465H35.0552V64.9303H31.2996V67.8834Z" fill="#0C3C43"/>
<path d="M50.385 59.6846H52.4959L50.7606 67.8834H48.2352C47.9676 66.9595 47.7345 66.0571 47.5359 65.1764C47.346 64.2956 47.1647 63.3544 46.992 62.3528H46.9661C46.7675 63.3544 46.569 64.2956 46.3704 65.1764C46.1804 66.0571 45.9646 66.9595 45.7229 67.8834H43.1975L41.4622 59.6846H43.5731C43.7026 60.289 43.8191 60.8805 43.9227 61.459C44.0263 62.0376 44.1256 62.6291 44.2206 63.2335C44.3242 63.8293 44.4278 64.477 44.5314 65.1764H44.5573C44.6868 64.477 44.812 63.8293 44.9329 63.2335C45.0537 62.6291 45.1789 62.0376 45.3084 61.459C45.4379 60.8805 45.5761 60.289 45.7229 59.6846H48.2352C48.4338 60.5999 48.6281 61.5152 48.818 62.4305C49.0166 63.3458 49.2108 64.2611 49.4008 65.1764H49.4267C49.5907 64.2611 49.7504 63.3458 49.9058 62.4305C50.0613 61.5152 50.221 60.5999 50.385 59.6846Z" fill="#0C3C43"/>
<path d="M54.1743 63.7775C54.1743 62.7327 54.2909 61.9037 54.524 61.2907C54.7657 60.6776 55.1758 60.2372 55.7543 59.9695C56.3414 59.7018 57.1573 59.568 58.2019 59.568C58.9876 59.568 59.6394 59.6414 60.1574 59.7882C60.6755 59.935 61.0856 60.1724 61.3877 60.5006C61.6899 60.8287 61.9014 61.2648 62.0223 61.8088C62.1518 62.3441 62.2166 63.0004 62.2166 63.7775C62.2166 64.5633 62.1518 65.2282 62.0223 65.7722C61.9014 66.3076 61.6899 66.7393 61.3877 67.0674C61.0856 67.3956 60.6755 67.633 60.1574 67.7798C59.6394 67.9266 58.9876 68 58.2019 68C57.4163 68 56.7644 67.9266 56.2464 67.7798C55.7284 67.633 55.3183 67.3956 55.0161 67.0674C54.7139 66.7393 54.4981 66.3076 54.3686 65.7722C54.2391 65.2282 54.1743 64.5633 54.1743 63.7775ZM58.2019 66.1867C58.7545 66.1867 59.1689 66.1176 59.4452 65.9794C59.7214 65.8413 59.9071 65.5995 60.002 65.2541C60.097 64.9001 60.1445 64.4079 60.1445 63.7775C60.1445 63.1558 60.097 62.6723 60.002 62.3269C59.9071 61.9815 59.7214 61.7397 59.4452 61.6015C59.1689 61.4547 58.7545 61.3813 58.2019 61.3813C57.658 61.3813 57.2436 61.4547 56.9587 61.6015C56.6824 61.7397 56.4925 61.9815 56.3889 62.3269C56.2939 62.6723 56.2464 63.1558 56.2464 63.7775C56.2464 64.4079 56.2939 64.9001 56.3889 65.2541C56.4925 65.5995 56.6824 65.8413 56.9587 65.9794C57.2436 66.1176 57.658 66.1867 58.2019 66.1867Z" fill="#0C3C43"/>
<path d="M66.4924 67.8834H64.4204V59.6846H68.3314C69.3588 59.6846 70.1056 59.9177 70.5718 60.384C71.0467 60.8417 71.2841 61.5195 71.2841 62.4175C71.2841 63.091 71.1157 63.6696 70.779 64.1531C70.4423 64.6281 69.9977 64.926 69.4451 65.0469L69.4322 65.0857C69.648 65.2239 69.8854 65.4527 70.1445 65.7722C70.4035 66.0917 70.6582 66.4414 70.9085 66.8213C71.1675 67.1926 71.3963 67.5424 71.5949 67.8705V67.8834H69.1861L67.7875 65.8111C67.6666 65.6297 67.5673 65.5002 67.4896 65.4225C67.4205 65.3448 67.3342 65.2973 67.2306 65.28C67.1356 65.2627 66.9802 65.2541 66.7644 65.2541H66.4924V67.8834ZM67.9947 61.3684H66.4924V63.5703H67.9947C68.4264 63.5703 68.7242 63.4839 68.8883 63.3112C69.0609 63.1385 69.1473 62.8579 69.1473 62.4693C69.1473 62.0808 69.0609 61.8001 68.8883 61.6274C68.7242 61.4547 68.4264 61.3684 67.9947 61.3684Z" fill="#0C3C43"/>
<path d="M75.7459 67.8834H73.6739V59.6846H75.7459V63.117C75.7632 63.117 75.7761 63.117 75.7848 63.117C75.8711 63.117 75.9704 63.0479 76.0826 62.9097C76.2035 62.7716 76.3114 62.6334 76.4064 62.4952L78.1418 59.6846H80.3951V59.7234L78.9188 62.1067C78.7893 62.3225 78.6425 62.5557 78.4785 62.8061C78.3144 63.0479 78.1504 63.2637 77.9864 63.4537C77.831 63.6351 77.6928 63.7473 77.5719 63.7905V63.8293C77.6928 63.8811 77.831 63.9934 77.9864 64.1661C78.1504 64.3302 78.3144 64.5244 78.4785 64.749C78.6511 64.9648 78.8152 65.1807 78.9706 65.3966L80.693 67.8446V67.8834H78.3101L76.6913 65.3966V65.4095C76.6395 65.3232 76.5575 65.2109 76.4453 65.0728C76.3417 64.926 76.2294 64.7921 76.1085 64.6712C75.9963 64.5504 75.897 64.4899 75.8107 64.4899C75.7934 64.4899 75.7805 64.4899 75.7718 64.4899C75.7632 64.4899 75.7546 64.4899 75.7459 64.4899V67.8834Z" fill="#0C3C43"/>
<path d="M82.2269 65.7722C82.6068 65.9017 83.0212 66.0053 83.4702 66.0831C83.9277 66.1521 84.381 66.1867 84.83 66.1867C85.4429 66.1867 85.8962 66.1608 86.1898 66.109C86.4919 66.0485 86.6905 65.9578 86.7855 65.837C86.8804 65.7161 86.9279 65.5606 86.9279 65.3707C86.9279 65.2066 86.8934 65.0771 86.8243 64.9821C86.7553 64.8871 86.6214 64.8137 86.4229 64.7619C86.2243 64.7015 85.9307 64.654 85.5422 64.6194L84.6875 64.5417C84.0486 64.4813 83.5435 64.3474 83.1723 64.1402C82.8097 63.933 82.5507 63.6566 82.3953 63.3112C82.2485 62.9572 82.1751 62.5341 82.1751 62.0419C82.1751 61.4547 82.2917 60.9798 82.5248 60.6171C82.7665 60.2545 83.155 59.9911 83.6903 59.827C84.2256 59.6544 84.9379 59.568 85.8271 59.568C86.984 59.568 87.9381 59.7191 88.6892 60.0213L88.6503 61.7829L88.6115 61.8347C87.7568 61.5324 86.8632 61.3813 85.9307 61.3813C85.4818 61.3813 85.1365 61.4072 84.8947 61.459C84.653 61.5022 84.4846 61.5756 84.3896 61.6792C84.2947 61.7829 84.2472 61.9297 84.2472 62.1196C84.2472 62.3096 84.2774 62.4521 84.3378 62.547C84.4069 62.642 84.5407 62.7154 84.7393 62.7672C84.9379 62.8104 85.2271 62.8536 85.607 62.8968L86.4229 62.9874C87.1136 63.0651 87.6445 63.2033 88.0158 63.4019C88.387 63.6005 88.6417 63.8682 88.7798 64.2049C88.9266 64.5331 89 64.9346 89 65.4095C89 65.9881 88.8748 66.4716 88.6244 66.8602C88.3827 67.2401 87.9855 67.5251 87.433 67.715C86.8804 67.905 86.1423 68 85.2185 68C84.6141 68 84.0702 67.9698 83.5867 67.9093C83.1032 67.8403 82.6327 67.7496 82.1751 67.6373V65.8111L82.2269 65.7722Z" fill="#0C3C43"/>
</svg>
