<svg width="24" height="24" viewBox="0 0 24 24" fill="none" xmlns="http://www.w3.org/2000/svg">
<path d="M23.5 23.5C23.0227 23.5 22.5814 23.5 22.1042 23.5C22.1042 16.3164 22.1042 9.15088 22.1042 1.93131C14.8908 1.93131 7.71339 1.93131 0.509005 1.93131C0.5 1.4272 0.5 0.977104 0.5 0.5C8.16366 0.5 15.8183 0.5 23.5 0.5C23.5 8.16067 23.5 15.8123 23.5 23.5Z" fill="white" stroke="white" stroke-width="0.375"/>
<path d="M17.7365 23.5C17.2592 23.5 16.8179 23.5 16.3406 23.5C16.3406 18.2338 16.3406 12.9857 16.3406 7.69254C11.0454 7.69254 5.79522 7.69254 0.509005 7.69254C0.5 7.18843 0.5 6.73833 0.5 6.26123C6.2455 6.26123 11.973 6.26123 17.7365 6.26123C17.7365 11.9955 17.7365 17.7387 17.7365 23.5Z" fill="white" stroke="white" stroke-width="0.375"/>
<path d="M6.21206 18.891C5.80681 18.4949 5.49162 18.1889 5.14941 17.8558C7.31073 15.6953 9.47205 13.5439 11.7054 11.3114C10.5437 11.3114 9.50807 11.3114 8.43642 11.3114C8.43642 10.8163 8.43642 10.3662 8.43642 9.88007C10.3276 9.88007 12.2187 9.88007 14.1369 9.88007C14.1369 11.7795 14.1369 13.6789 14.1369 15.5873C13.6776 15.5873 13.2273 15.5873 12.732 15.5873C12.732 14.5341 12.732 13.4808 12.732 12.3736C10.5257 14.5791 8.37338 16.7306 6.21206 18.891Z" fill="white" stroke="white" stroke-width="0.375"/>
<path d="M2.12752 20.9974C2.40658 21.2765 2.72165 21.5916 3.02771 21.8976C2.70364 22.2217 2.37957 22.5458 2.0465 22.8878C1.76744 22.5818 1.46137 22.2397 1.16431 21.9156C1.43437 21.6456 1.76744 21.3305 2.12752 20.9974Z" fill="white" stroke="white" stroke-width="0.375"/>
<path d="M5.00757 19.9712C4.73751 20.2323 4.41344 20.5383 4.10737 20.8354C3.80131 20.5293 3.46824 20.1962 3.14417 19.8722C3.44123 19.5661 3.7563 19.251 4.06236 18.936C4.37743 19.278 4.6835 19.6111 5.00757 19.9712Z" fill="white" stroke="white" stroke-width="0.375"/>
</svg>
