<svg width="30" height="30" viewBox="0 0 30 30" fill="none" xmlns="http://www.w3.org/2000/svg">
<path d="M29.7427 1.42785C27.8531 -0.46233 24.7674 -0.489107 22.851 1.42785C21.6342 2.64455 19.6613 2.64343 18.4458 1.42785C16.5317 -0.486822 13.4464 -0.465025 11.5543 1.42779C10.3397 2.64232 8.36689 2.64589 7.14891 1.42785C5.25932 -0.46233 2.17365 -0.489107 0.257344 1.42785C0.0925781 1.59267 0 1.81615 0 2.04923V27.9507C0 28.3062 0.21416 28.6267 0.542578 28.7627C0.870996 28.8987 1.24904 28.8235 1.50041 28.5722C2.715 27.3576 4.69131 27.3576 5.90578 28.5721C7.81998 30.4869 10.9052 30.4649 12.7973 28.5722C14.0119 27.3576 15.9882 27.3576 17.2027 28.5721C19.117 30.4869 22.2022 30.4649 24.0942 28.5722C25.3088 27.3576 27.2851 27.3576 28.4997 28.5722C28.751 28.8235 29.1291 28.8986 29.4575 28.7627C29.786 28.6267 30.0001 28.3061 30.0001 27.9507V2.04923C30 1.81615 29.9074 1.59267 29.7427 1.42785ZM5.64844 26.3069C5.05811 26.0508 3.51697 25.5435 1.75781 26.3069V2.43982C2.73111 1.65882 4.36875 1.41302 5.64844 2.43982V26.3069ZM11.2969 27.5601C10.3236 28.3411 8.68594 28.5869 7.40625 27.5601V3.69302C8.64352 4.22997 10.0596 4.23003 11.2969 3.69302V27.5601ZM16.9453 26.3069C16.355 26.0508 14.8138 25.5435 13.0547 26.3069V2.43982C14.028 1.65882 15.6656 1.41302 16.9453 2.43982V26.3069ZM22.5938 27.5601C21.2905 28.6058 19.6538 28.323 18.7031 27.5601V3.69302C19.9405 4.23003 21.3565 4.22997 22.5938 3.69302V27.5601ZM28.2422 26.3069C26.483 25.5435 24.9419 26.0508 24.3516 26.3069V2.43982C25.6548 1.39415 27.2915 1.67699 28.2422 2.43982V26.3069Z" fill="white"/>
</svg>
