<svg width="21" height="28" viewBox="0 0 21 28" fill="none" xmlns="http://www.w3.org/2000/svg">
<path d="M10.1998 0C4.57776 0 0 4.57765 0 10.1998C0 13.0405 1.17049 15.6214 3.05226 17.4732V26.8909C3.05248 27.1153 3.13398 27.332 3.28166 27.501C3.42956 27.6699 3.63352 27.7794 3.856 27.8093C4.0785 27.8391 4.30423 27.7874 4.49139 27.6636L10.2001 23.8384L15.9087 27.6537C16.0959 27.7776 16.3216 27.8294 16.5441 27.7996C16.7664 27.7697 16.9706 27.6601 17.1183 27.4911C17.2662 27.3223 17.3476 27.1054 17.3479 26.8809V17.4732C19.2294 15.6216 20.4001 13.0409 20.4001 10.1998C20.4001 4.57776 15.8225 0 10.2004 0H10.1998ZM10.1998 1.85462C14.8196 1.85462 18.545 5.57996 18.545 10.1999C18.545 14.8198 14.8197 18.5452 10.1998 18.5452C5.57985 18.5452 1.85451 14.8198 1.85451 10.1999C1.85451 5.57996 5.57985 1.85462 10.1998 1.85462ZM10.1804 4.01815C10.0083 4.0216 9.84037 4.07205 9.69549 4.16411C9.5506 4.25639 9.43418 4.38617 9.35937 4.53968L7.96854 7.38905L4.81969 7.814V7.81422C4.58836 7.84613 4.3775 7.96298 4.22896 8.14171C4.08041 8.32023 4.00516 8.54747 4.01789 8.77859C4.03082 9.0095 4.13086 9.22725 4.29817 9.38854L6.59687 11.5715L6.03676 14.6721V14.6723C5.98631 14.9403 6.05832 15.2169 6.23361 15.4275C6.40867 15.6382 6.66912 15.7613 6.94466 15.7637C7.10033 15.7624 7.25297 15.7225 7.38902 15.6477L10.1998 14.1602L13.0106 15.6477C13.2171 15.7552 13.4571 15.7822 13.6829 15.7231C13.9086 15.664 14.1037 15.5233 14.2296 15.3286C14.3555 15.1341 14.4032 14.8997 14.3629 14.672L13.8028 11.5715L16.1015 9.38853C16.2688 9.22705 16.3688 9.00929 16.3817 8.77837C16.3945 8.54746 16.3192 8.32022 16.1707 8.14149C16.0221 7.96297 15.8113 7.84611 15.5799 7.81421L12.4311 7.38926L11.0403 4.53989V4.53967C10.9624 4.38035 10.8402 4.24646 10.6877 4.15396C10.5353 4.06147 10.3592 4.01426 10.1804 4.01814L10.1804 4.01815ZM10.1998 7.0607L10.9725 8.6352C11.1096 8.90751 11.3733 9.09529 11.6775 9.13755L13.4258 9.37903L12.1507 10.5864H12.1509C11.9289 10.7988 11.8275 11.1062 11.8803 11.4074L12.1895 13.1268L10.6344 12.3058V12.3056C10.3623 12.1637 10.0372 12.1637 9.76508 12.3056L8.20995 13.1266L8.51912 11.4072V11.4074C8.57194 11.1062 8.47061 10.7988 8.24854 10.5864L6.98318 9.37903L8.72177 9.13755H8.72199C9.0262 9.0953 9.2901 8.90729 9.42698 8.6352L10.1998 7.0607ZM4.90682 18.9124C6.45158 19.855 8.26243 20.3998 10.1998 20.3998C12.1371 20.3998 13.9482 19.855 15.4927 18.9124V25.1427L10.7116 21.9455V21.9453C10.5598 21.8448 10.3817 21.7914 10.1998 21.7914C10.0178 21.7914 9.8397 21.8448 9.68792 21.9453L4.90678 25.1522L4.90682 18.9124Z" fill="white"/>
</svg>
