<svg width="26" height="26" viewBox="0 0 26 26" fill="none" xmlns="http://www.w3.org/2000/svg">
<path d="M11.2403 13.5683C11.118 13.1883 11.0144 12.8082 10.8732 12.4388C10.6849 11.911 10.7696 11.4571 11.0803 11.0138C11.6075 10.2538 12.0971 9.45156 12.6243 8.681C12.8503 8.34322 12.8691 8.04766 12.6808 7.66766C12.2477 6.79154 11.8523 5.89431 11.4286 5.00764C11.2121 4.55375 11.2027 4.11041 11.4286 3.65652C11.7676 2.95985 12.0783 2.25262 12.4172 1.5665C12.7279 0.922609 13.1233 0.827608 13.6411 1.2815C15.0722 2.51651 16.4844 3.76207 17.9155 5.00764C18.0567 5.13431 18.2073 5.25042 18.4145 5.42986C18.4333 5.08153 18.4333 4.81764 18.4521 4.5643C18.4992 4.09985 18.744 3.81485 19.1582 3.81485C20.0338 3.79374 20.9188 3.79374 21.7944 3.81485C22.2745 3.82541 22.5193 4.16319 22.5193 4.77541C22.5288 5.95764 22.5382 7.12932 22.5099 8.31155C22.5005 8.83933 22.6323 9.20878 23.0277 9.51489C23.602 9.96878 24.1669 10.4438 24.6942 10.9716C24.873 11.151 25.0519 11.5416 24.986 11.7421C24.9201 11.9427 24.5718 12.0799 24.327 12.1538C24.0916 12.2171 23.828 12.1644 23.5738 12.1644C22.8394 12.1644 22.8394 12.1644 22.8394 13.0088C22.8394 14.7716 22.8394 16.5238 22.8394 18.2866C22.8394 20.1127 22.8394 21.9494 22.8394 23.7755C22.8394 24.7678 22.6417 25 21.7661 25C19.8173 25 17.8778 25 15.9289 25C15.0816 25 14.8745 24.7572 14.8745 23.8178C14.8745 22.6039 14.8839 21.39 14.8745 20.1761C14.8557 18.8461 14.2343 17.9911 13.2269 17.8644C11.9465 17.7061 11.1462 18.54 11.1274 20.0811C11.1085 21.3266 11.1274 22.5828 11.1274 23.8283C11.1274 24.7467 10.9108 25 10.1106 25C8.13345 25 6.15633 25 4.17921 25C3.39778 25 3.16241 24.7467 3.16241 23.8705C3.16241 20.2077 3.16241 16.5555 3.16241 12.8927C3.16241 12.1644 3.16241 12.1644 2.53162 12.1644C2.23034 12.1644 1.92906 12.2171 1.6372 12.1432C1.40183 12.0905 1.08173 11.9427 1.01582 11.7421C0.949921 11.5521 1.10056 11.1616 1.27003 10.9927C1.97614 10.3171 2.71991 9.70489 3.44486 9.061C4.85708 7.82599 6.26931 6.60154 7.68154 5.36653C8.23701 4.88097 8.55712 4.92319 9.00903 5.51431C9.52685 6.17931 10.0258 6.85487 10.5342 7.51988C10.8826 7.96321 10.9202 8.40655 10.6472 8.91322C10.2141 9.726 9.81871 10.5705 9.38562 11.3832C9.18791 11.7527 9.2444 11.9744 9.53626 12.2171C10.0729 12.671 10.6001 13.146 11.1274 13.6105C11.1839 13.6105 11.2121 13.5894 11.2403 13.5683ZM13.1704 6.09487C13.1327 6.12653 13.1045 6.14765 13.0668 6.17931C13.2457 6.58043 13.4058 6.9921 13.6223 7.3721C13.9707 7.99488 13.933 8.53322 13.5187 9.11378C12.9633 9.89489 12.4643 10.7288 11.9276 11.531C11.7676 11.7738 11.7488 11.9744 11.8429 12.2488C12.1159 13.051 12.3795 13.8638 12.6337 14.666C12.7467 15.0144 12.8785 15.3944 12.5208 15.6583C12.2007 15.901 11.9276 15.6688 11.6734 15.4472C10.6755 14.5605 9.67748 13.6844 8.67951 12.7977C8.09579 12.2805 8.0393 11.9427 8.40648 11.2143C8.63244 10.771 8.85839 10.3277 9.07493 9.88434C8.08637 10.4649 7.19196 11.1088 6.28814 11.7421C6.03394 11.9216 5.74208 12.2699 5.47846 11.8371C5.19602 11.3621 5.63851 11.2038 5.89272 11.0138C7.06016 10.1588 8.24643 9.32489 9.40445 8.46988C9.52685 8.38544 9.66807 8.07933 9.63041 8.02655C9.20674 7.41432 8.74541 6.82321 8.27467 6.21098C6.43878 7.8471 4.64054 9.40934 2.78582 11.0349C4.13214 11.2566 4.14155 11.2671 4.14155 12.7027C4.14155 16.2388 4.14155 19.775 4.14155 23.3111C4.14155 23.7017 4.17921 23.9444 4.6123 23.9339C6.3258 23.9128 8.02989 23.9233 9.74339 23.9339C10.0729 23.9339 10.2141 23.8178 10.2047 23.4167C10.1859 22.2555 10.1859 21.0944 10.2047 19.9333C10.233 18.4238 10.9956 17.2416 12.1348 16.9038C14.1025 16.3233 15.7971 17.7483 15.8442 20.0389C15.863 21.1155 15.8442 22.1816 15.8536 23.2583C15.8536 23.9128 15.8725 23.9339 16.4656 23.9339C18.0849 23.9339 19.6949 23.9128 21.3142 23.9444C21.8038 23.955 21.9168 23.765 21.9168 23.2478C21.898 19.6589 21.9074 16.0699 21.9074 12.481C21.9074 11.3199 22.0203 11.1932 23.0372 11.0877C23.056 11.0877 23.0748 11.0455 23.1501 10.9399C19.8455 8.05821 16.5409 5.17653 13.1892 2.24206C12.9256 2.80151 12.7185 3.29763 12.4643 3.75152C12.2383 4.14208 12.3325 4.34263 12.6432 4.59597C15.1946 6.70709 17.7272 8.83933 20.2598 10.961C20.401 11.0771 20.5799 11.1721 20.6552 11.3305C20.7305 11.4888 20.7399 11.7421 20.674 11.8899C20.627 11.9849 20.3728 12.006 20.2315 11.9744C20.1091 11.9532 19.9962 11.8055 19.8832 11.7105C18.3203 10.4016 16.7669 9.10322 15.2134 7.79432C14.5167 7.22432 13.8388 6.66487 13.1704 6.09487ZM19.3559 4.87041C19.403 5.42986 19.29 6.07376 19.5254 6.3482C20.0809 7.01321 20.7964 7.51988 21.5684 8.19544C21.5684 7.05543 21.5779 6.08431 21.559 5.11319C21.559 5.02875 21.399 4.89153 21.3142 4.89153C20.6929 4.85986 20.0903 4.87041 19.3559 4.87041Z" fill="white" stroke="white" stroke-width="0.6"/>
</svg>
