<svg width="30" height="30" viewBox="0 0 30 30" fill="none" xmlns="http://www.w3.org/2000/svg">
<path d="M14.4946 21.5351C14.1667 21.5351 13.9699 21.5351 13.7731 21.5351C10.9525 21.5351 8.13192 21.5351 5.3004 21.5351C3.95571 21.5351 3.32162 20.9013 3.32162 19.5683C3.32162 17.4595 3.32162 15.3507 3.32162 13.2309C3.32162 13.0342 3.32162 12.8375 3.32162 12.6409C2.41423 12.6846 1.20072 11.7449 1.0258 10.8817C0.916474 10.3791 1.16792 10.0185 1.52869 9.6907C3.75892 7.68022 5.97822 5.65881 8.20845 3.6374C8.96279 2.94903 9.71713 2.26066 10.4715 1.58321C11.3351 0.807427 11.674 0.807427 12.5158 1.57228C13.456 2.42455 14.3962 3.28775 15.3036 4.10724C15.5223 3.74667 15.6425 3.29868 15.9487 3.11293C16.2657 2.90532 16.7358 2.92718 17.1403 2.8944C17.5776 2.86162 18.0149 2.88347 18.4522 2.88347C19.2503 2.8944 19.6657 3.28775 19.6657 4.09632C19.6766 5.27638 19.6548 6.46737 19.6876 7.64744C19.6985 7.88783 19.8625 8.12821 19.9827 8.34674C20.0483 8.46693 20.2014 8.54342 20.2998 8.65268C21.0432 9.50495 21.8741 10.095 23.1094 9.77812C23.3609 9.71256 23.7326 9.84368 23.9731 10.0076C24.3995 10.2917 24.4104 10.8489 24.0278 11.3078C23.2953 12.171 22.5628 13.0233 21.8085 13.8646C21.568 14.1378 21.4914 14.4 21.557 14.7497C21.6773 15.3507 21.7866 15.9625 21.8631 16.5744C21.8959 16.8694 22.0053 16.9787 22.3114 16.9787C23.0001 16.9678 23.6998 17.0115 24.3885 16.9787C24.5853 16.9678 24.8258 16.8257 24.968 16.6618C25.7114 15.8423 26.4329 14.9901 27.1545 14.1487C27.4387 13.8209 27.7557 13.6024 28.204 13.7335C28.6413 13.8646 28.8162 14.2034 28.8927 14.6295C29.6799 18.8799 26.0175 22.5185 21.7757 21.699C21.4368 21.6334 21.2509 21.7318 21.0323 21.9831C19.3159 23.9826 17.5776 25.9822 15.8612 27.9817C15.1724 28.7794 14.3306 29.1509 13.2811 28.9433C11.3133 28.5499 10.5043 26.2881 11.7724 24.7256C12.6142 23.6657 13.5107 22.6714 14.4946 21.5351ZM11.521 5.1999C11.4117 5.26546 11.357 5.28731 11.3242 5.33101C9.05025 7.39613 6.76536 9.46125 4.50233 11.5373C4.38207 11.6466 4.28368 11.8432 4.28368 11.9962C4.27275 14.6186 4.27275 17.2409 4.27275 19.8524C4.27275 20.2239 4.46953 20.5408 4.83031 20.5517C6.02195 20.5845 7.21359 20.5626 8.3943 20.5626C8.41616 20.4643 8.43803 20.4315 8.43803 20.3987C8.43803 18.7925 8.43803 17.1972 8.44896 15.591C8.45989 14.6404 8.99558 14.0832 9.92485 14.0613C10.9634 14.0395 12.002 14.0395 13.0406 14.0613C13.9808 14.0832 14.5165 14.6404 14.5274 15.591C14.5384 16.9569 14.5274 18.3227 14.5274 19.6885C14.5274 19.9726 14.5274 20.2567 14.5274 20.5189C15.0741 20.6828 15.413 20.5298 15.7191 20.1365C16.1454 19.5683 16.6265 19.0438 17.1075 18.5303C17.3261 18.3008 17.348 18.1041 17.2387 17.8091C16.703 16.345 16.7249 14.8699 17.3589 13.4494C17.6541 12.7938 18.0805 12.2038 18.4631 11.5264C16.1892 9.45032 13.8715 7.33057 11.521 5.1999ZM23.2953 10.6959C23.0548 10.6741 22.9345 10.6522 22.8143 10.6632C19.2065 10.7615 16.8342 14.411 18.2226 17.7436C18.4085 18.1916 18.3866 18.5084 18.0477 18.869C17.5011 19.4481 16.9872 20.0709 16.4625 20.6828C15.1396 22.2125 13.8168 23.7313 12.5049 25.2719C11.9911 25.8729 11.9474 26.6268 12.33 27.2497C12.7017 27.8615 13.4123 28.2112 14.112 27.9927C14.5384 27.8506 14.9538 27.5447 15.249 27.2169C17.0419 25.1845 18.813 23.1303 20.5731 21.0652C20.8901 20.6937 21.1744 20.5954 21.6554 20.7265C24.0824 21.3712 26.6078 20.1365 27.6136 17.8419C28.04 16.8694 28.1493 15.8642 27.9197 14.6951C27.7339 14.8917 27.6136 15.0229 27.5043 15.154C26.8155 15.9516 26.1377 16.7711 25.4162 17.536C25.2194 17.7436 24.8696 17.9075 24.5853 17.9184C23.6233 17.9402 22.6612 17.8747 21.6882 17.8747C21.2837 17.8747 21.0869 17.6999 21.0213 17.3065C20.8683 16.334 20.6824 15.3725 20.5731 14.4C20.5403 14.1378 20.6606 13.7882 20.8355 13.5806C21.6117 12.6299 22.4207 11.7121 23.2953 10.6959ZM2.86246 11.734C3.00458 11.6138 3.13577 11.5045 3.25603 11.3952C5.8033 9.07882 8.35057 6.76239 10.8978 4.45689C11.4554 3.94334 11.521 3.94334 12.0676 4.44597C14.3088 6.4783 16.539 8.51064 18.7802 10.543C18.9442 10.685 19.1081 10.8271 19.2503 10.9582C19.7094 10.685 20.1249 10.4337 20.5622 10.1824C20.4856 10.1059 20.4419 10.0404 20.3982 9.99665C17.5339 7.39613 14.6805 4.80654 11.8271 2.1951C11.521 1.91101 11.357 2.02027 11.1056 2.24973C8.33964 4.77376 5.56278 7.28687 2.775 9.8109C1.80201 10.6959 1.79107 10.6959 2.72034 11.6466C2.75313 11.6684 2.78593 11.6793 2.86246 11.734ZM13.5763 20.5626C13.5763 18.8471 13.5763 17.1972 13.5763 15.5473C13.5763 15.154 13.3576 15.001 12.9859 15.001C12.002 15.001 11.0181 15.0119 10.0342 15.001C9.56407 14.9901 9.38916 15.2086 9.38916 15.6675C9.40009 16.8367 9.38916 17.9949 9.38916 19.164C9.38916 19.6339 9.38916 20.0928 9.38916 20.5735C10.8213 20.5626 12.166 20.5626 13.5763 20.5626ZM18.6927 3.86686C17.8946 3.86686 17.1622 3.86686 16.375 3.86686C16.4078 4.3367 16.2876 4.8721 16.5062 5.12341C17.1403 5.84456 17.9056 6.45645 18.6927 7.16667C18.6927 5.99753 18.6927 4.94859 18.6927 3.86686Z" fill="white" stroke="white" stroke-width="0.6"/>
<path d="M15.3035 25.1737C15.216 25.3376 15.1614 25.4687 15.0739 25.578C14.8225 25.8839 14.582 26.2226 14.2759 26.474C14.1447 26.5832 13.8167 26.5832 13.6636 26.4849C13.5543 26.4193 13.5106 26.0478 13.598 25.9276C13.8604 25.5343 14.1775 25.1846 14.5164 24.8568C14.6148 24.7694 14.8662 24.7585 15.0083 24.8131C15.1286 24.8568 15.2051 25.0426 15.3035 25.1737Z" fill="white" stroke="white" stroke-width="0.6"/>
</svg>
