<svg width="42" height="24" viewBox="0 0 42 24" fill="none" xmlns="http://www.w3.org/2000/svg">
<path fill-rule="evenodd" clip-rule="evenodd" d="M8.26329 8.19724C6.96706 8.19724 5.91309 7.14327 5.91309 5.84703C5.91309 4.5508 6.96706 3.49683 8.26329 3.49683C9.55952 3.49683 10.6135 4.5508 10.6135 5.84703C10.6134 7.14327 9.55952 8.19724 8.26329 8.19724ZM8.26329 4.69566C7.62891 4.69566 7.11191 5.21265 7.11191 5.84703C7.11191 6.48141 7.62891 6.99841 8.26329 6.99841C8.89767 6.99841 9.41467 6.48141 9.41467 5.84703C9.41467 5.21265 8.89757 4.69566 8.26329 4.69566Z" fill="white" stroke="white" stroke-width="0.5"/>
<path fill-rule="evenodd" clip-rule="evenodd" d="M9.95246 22.201H6.65068C6.31851 22.201 6.05127 21.9338 6.05127 21.6016C6.05127 21.2694 6.31851 21.0022 6.65068 21.0022H9.95246C10.2846 21.0022 10.5519 21.2694 10.5519 21.6016C10.552 21.9338 10.2821 22.201 9.95246 22.201Z" fill="white" stroke="white" stroke-width="0.5"/>
<path fill-rule="evenodd" clip-rule="evenodd" d="M9.95258 22.201C9.9401 22.201 9.92761 22.201 9.91762 22.201C9.58794 22.181 9.33568 21.8988 9.35567 21.5666L9.67785 16.0869L9.87766 11.9635C9.88765 11.7637 9.99754 11.5813 10.1699 11.4789C10.3422 11.3765 10.5545 11.3665 10.7368 11.4515L13.9362 12.98C13.9462 12.985 13.9562 12.9825 13.9612 12.975L14.0136 12.9225C14.0286 12.9075 14.0336 12.8901 14.0311 12.8701C14.0286 12.8501 14.0186 12.8351 14.0036 12.8226L9.78025 9.91296C9.70033 9.85802 9.60792 9.83054 9.51301 9.83054H6.85811C6.7582 9.83054 6.6633 9.86051 6.58337 9.92046L2.91945 12.5679C2.86201 12.6078 2.84952 12.6653 2.84452 12.6927C2.83953 12.7227 2.84203 12.7802 2.88449 12.8326L5.87656 11.449C6.05639 11.3665 6.26868 11.3765 6.43851 11.4814C6.60835 11.5838 6.71824 11.7662 6.72573 11.966L6.92554 16.0894L7.24772 21.5691C7.2677 21.8988 7.01545 22.1835 6.68577 22.2035C6.35609 22.2234 6.07137 21.9712 6.05139 21.6415L5.72921 16.1594C5.72921 16.1569 5.72921 16.1544 5.72921 16.1519L5.57436 12.9125L3.39149 13.9215C2.89697 14.1488 2.31005 14.0165 1.96289 13.5994C1.72062 13.3071 1.60823 12.92 1.65569 12.5429C1.70314 12.1658 1.90794 11.8186 2.21764 11.5963L5.88156 8.9489C6.16878 8.74161 6.50595 8.63171 6.8606 8.63171H9.51551C9.85518 8.63171 10.1849 8.73411 10.4646 8.92643L14.6805 11.8361C14.9852 12.0459 15.1825 12.3806 15.2199 12.7502C15.2574 13.1198 15.13 13.4845 14.8728 13.7517L14.8228 13.8042C14.4582 14.1838 13.8912 14.2862 13.4167 14.0589L11.0315 12.92L10.8767 16.1469C10.8767 16.1494 10.8767 16.1519 10.8767 16.1544L10.5545 21.6365C10.5321 21.9562 10.2673 22.201 9.95258 22.201Z" fill="white" stroke="white" stroke-width="0.5"/>
<path fill-rule="evenodd" clip-rule="evenodd" d="M8.30229 22.201C7.97012 22.201 7.70288 21.9338 7.70288 21.6016V17.3608C7.70288 17.0286 7.97012 16.7614 8.30229 16.7614C8.63447 16.7614 8.90171 17.0286 8.90171 17.3608V21.6016C8.90171 21.9338 8.63197 22.201 8.30229 22.201Z" fill="white" stroke="white" stroke-width="0.5"/>
<path fill-rule="evenodd" clip-rule="evenodd" d="M20.6465 8.24973C19.3502 8.24973 18.2963 7.19576 18.2963 5.89952C18.2963 4.60329 19.3502 3.54932 20.6465 3.54932C21.9427 3.54932 22.9967 4.60329 22.9967 5.89952C22.9967 7.19576 21.9427 8.24973 20.6465 8.24973ZM20.6465 4.74815C20.0121 4.74815 19.4951 5.26514 19.4951 5.89952C19.4951 6.5339 20.0121 7.0509 20.6465 7.0509C21.2809 7.0509 21.7978 6.5339 21.7978 5.89952C21.7978 5.26514 21.2809 4.74815 20.6465 4.74815Z" fill="white" stroke="white" stroke-width="0.5"/>
<path fill-rule="evenodd" clip-rule="evenodd" d="M22.3349 22.2534H19.0331C18.701 22.2534 18.4337 21.9862 18.4337 21.654C18.4337 21.3218 18.701 21.0546 19.0331 21.0546H22.3349C22.6671 21.0546 22.9343 21.3218 22.9343 21.654C22.9343 21.9862 22.6671 22.2534 22.3349 22.2534Z" fill="white" stroke="white" stroke-width="0.5"/>
<path fill-rule="evenodd" clip-rule="evenodd" d="M22.3361 22.2534C22.3236 22.2534 22.3111 22.2534 22.3012 22.2534C21.9715 22.2334 21.7192 21.9512 21.7392 21.619L22.0614 16.1394L22.2612 12.0159C22.2712 11.8161 22.3811 11.6338 22.5534 11.5314C22.7257 11.429 22.938 11.419 23.1204 11.5039L26.3197 13.0324C26.3297 13.0374 26.3397 13.0349 26.3447 13.0274L26.3947 12.975C26.4096 12.96 26.4146 12.9425 26.4121 12.9225C26.4096 12.9025 26.3996 12.8875 26.3847 12.8751L22.1663 9.9629C22.0864 9.90795 21.994 9.88047 21.899 9.88047H19.2391C19.1392 9.88047 19.0443 9.91045 18.9644 9.97039L15.3005 12.6178C15.243 12.6578 15.2306 12.7152 15.2256 12.7427C15.2206 12.7702 15.2231 12.8301 15.2655 12.8825L18.2576 11.5014C18.4374 11.4165 18.6497 11.429 18.8196 11.5339C18.9894 11.6363 19.0993 11.8186 19.1068 12.0184L19.3066 16.1419L19.6288 21.6215C19.6487 21.9512 19.3965 22.2359 19.0668 22.2559C18.7371 22.2759 18.4524 22.0236 18.4324 21.6939L18.1077 16.2118C18.1077 16.2093 18.1077 16.2068 18.1077 16.2043L17.9529 12.965L15.77 13.974C15.2755 14.2013 14.6886 14.0689 14.3414 13.6518C14.0992 13.3571 13.9868 12.9725 14.0342 12.5953C14.0817 12.2182 14.2865 11.871 14.5962 11.6487L18.2601 9.00133C18.5473 8.79404 18.8845 8.68414 19.2391 8.68414H21.8965C22.2362 8.68414 22.5659 8.78654 22.8456 8.97886L27.064 11.891C27.3687 12.1008 27.566 12.4355 27.6035 12.8051C27.6409 13.1748 27.5136 13.5394 27.2563 13.8066L27.2064 13.8591C26.8417 14.2387 26.2748 14.3411 25.8002 14.1138L23.4151 12.975L23.2602 16.2018C23.2602 16.2043 23.2602 16.2068 23.2602 16.2093L22.9355 21.6914C22.9131 22.0086 22.6508 22.2534 22.3361 22.2534Z" fill="white" stroke="white" stroke-width="0.5"/>
<path fill-rule="evenodd" clip-rule="evenodd" d="M20.6839 22.2534C20.3517 22.2534 20.0845 21.9862 20.0845 21.654V17.4131C20.0845 17.081 20.3517 16.8137 20.6839 16.8137C21.0161 16.8137 21.2833 17.081 21.2833 17.4131V21.654C21.2833 21.9862 21.0161 22.2534 20.6839 22.2534Z" fill="white" stroke="white" stroke-width="0.5"/>
<path fill-rule="evenodd" clip-rule="evenodd" d="M33.0417 8.24973C31.7455 8.24973 30.6915 7.19576 30.6915 5.89952C30.6915 4.60329 31.7455 3.54932 33.0417 3.54932C34.338 3.54932 35.3919 4.60329 35.3919 5.89952C35.3919 7.19576 34.3355 8.24973 33.0417 8.24973ZM33.0417 4.74815C32.4074 4.74815 31.8904 5.26514 31.8904 5.89952C31.8904 6.5339 32.4074 7.0509 33.0417 7.0509C33.6761 7.0509 34.1931 6.5339 34.1931 5.89952C34.1931 5.26514 33.6761 4.74815 33.0417 4.74815Z" fill="white" stroke="white" stroke-width="0.5"/>
<path fill-rule="evenodd" clip-rule="evenodd" d="M34.7294 22.2535H31.4277C31.0955 22.2535 30.8282 21.9863 30.8282 21.6541C30.8282 21.3219 31.0955 21.0547 31.4277 21.0547H34.7294C35.0616 21.0547 35.3289 21.3219 35.3289 21.6541C35.3289 21.9863 35.0616 22.2535 34.7294 22.2535Z" fill="white" stroke="white" stroke-width="0.5"/>
<path fill-rule="evenodd" clip-rule="evenodd" d="M34.7296 22.2534C34.7171 22.2534 34.7046 22.2534 34.6946 22.2534C34.3649 22.2334 34.1127 21.9512 34.1326 21.619L34.4548 16.1394L34.6546 12.0159C34.6646 11.8161 34.7745 11.6338 34.9468 11.5314C35.1192 11.429 35.3315 11.419 35.5138 11.5039L38.7132 13.0324C38.7232 13.0374 38.7331 13.0349 38.7381 13.0274L38.7906 12.975C38.8056 12.96 38.8106 12.9425 38.8081 12.9225C38.8056 12.9025 38.7956 12.8875 38.7806 12.8751L34.5597 9.96539C34.4798 9.91045 34.3874 9.88297 34.2925 9.88297H31.6376C31.5377 9.88297 31.4428 9.91294 31.3628 9.97288L27.6989 12.6203C27.6415 12.6603 27.629 12.7177 27.624 12.7452C27.619 12.7727 27.6215 12.8326 27.664 12.885L30.656 11.5014C30.8359 11.4165 31.0482 11.429 31.218 11.5339C31.3878 11.6363 31.4977 11.8186 31.5052 12.0184L31.705 16.1419L32.0272 21.6215C32.0472 21.9512 31.7949 22.2359 31.4652 22.2559C31.1356 22.2759 30.8508 22.0236 30.8309 21.6939L30.5062 16.2118C30.5062 16.2093 30.5062 16.2068 30.5062 16.2043L30.3513 12.965L28.1685 13.974C27.674 14.2013 27.087 14.0689 26.7399 13.6518C26.4976 13.3571 26.3852 12.9725 26.4327 12.5953C26.4801 12.2182 26.6849 11.871 26.9946 11.6487L30.6585 9.00133C30.9458 8.79404 31.2829 8.68414 31.6376 8.68414H34.2925C34.6322 8.68414 34.9618 8.78654 35.2416 8.97886L39.4599 11.891C39.7646 12.1008 39.9619 12.4355 39.9994 12.8051C40.0369 13.1748 39.9095 13.5394 39.6523 13.8091L39.5998 13.8616C39.2352 14.2412 38.6682 14.3436 38.1937 14.1163L35.8085 12.9751L35.6537 16.2019C35.6537 16.2044 35.6537 16.2069 35.6537 16.2094L35.329 21.6915C35.309 22.0086 35.0468 22.2534 34.7296 22.2534Z" fill="white" stroke="white" stroke-width="0.5"/>
<path fill-rule="evenodd" clip-rule="evenodd" d="M33.08 22.2534C32.7478 22.2534 32.4806 21.9862 32.4806 21.654V17.4131C32.4806 17.081 32.7478 16.8137 33.08 16.8137C33.4122 16.8137 33.6794 17.081 33.6794 17.4131V21.654C33.6794 21.9862 33.4122 22.2534 33.08 22.2534Z" fill="white" stroke="white" stroke-width="0.5"/>
</svg>
