<svg width="32" height="32" viewBox="0 0 32 32" fill="none" xmlns="http://www.w3.org/2000/svg">
<path fill-rule="evenodd" clip-rule="evenodd" d="M16.6858 18.7321C16.5627 18.7321 16.4396 18.6818 16.3478 18.5833C16.1681 18.3902 16.1759 18.0845 16.3634 17.9015C17.2933 16.9865 18.063 15.7918 18.5904 14.4444C19.1472 13.0245 19.4304 11.488 19.4304 9.88113C19.4304 8.27424 19.1472 6.73975 18.5904 5.31788C18.063 3.97043 17.2914 2.77582 16.3634 1.86075C16.1759 1.67573 16.1701 1.37004 16.3478 1.17898C16.5275 0.985914 16.8245 0.97988 17.0101 1.16289C18.0337 2.17248 18.8815 3.48374 19.4597 4.95588C20.0614 6.49238 20.3681 8.14955 20.3681 9.87912C20.3681 11.6087 20.0633 13.2659 19.4597 14.8024C18.8815 16.2745 18.0356 17.5878 17.0101 18.5954C16.9202 18.6879 16.803 18.7321 16.6858 18.7321Z" fill="white" stroke="white" stroke-width="0.5"/>
<path fill-rule="evenodd" clip-rule="evenodd" d="M16.0002 18.7603C15.7404 18.7603 15.5314 18.5451 15.5314 18.2776V1.48267C15.5314 1.21519 15.7404 1 16.0002 1C16.26 1 16.469 1.21519 16.469 1.48267V18.2796C16.469 18.5451 16.2601 18.7603 16.0002 18.7603Z" fill="white" stroke="white" stroke-width="0.5"/>
<path fill-rule="evenodd" clip-rule="evenodd" d="M15.3151 18.7321C15.1979 18.7321 15.0827 18.6879 14.9908 18.5974C13.9672 17.5878 13.1194 16.2765 12.5412 14.8044C11.9395 13.2679 11.6328 11.6107 11.6328 9.88112C11.6328 8.14954 11.9376 6.49438 12.5412 4.95788C13.1194 3.48573 13.9653 2.17247 14.9908 1.16489C15.1784 0.979866 15.4753 0.987911 15.6531 1.18098C15.8328 1.37405 15.825 1.67974 15.6375 1.86275C14.7076 2.77782 13.9379 3.97243 13.4105 5.31988C12.8537 6.73974 12.5705 8.27624 12.5705 9.88313C12.5705 11.49 12.8537 13.0245 13.4105 14.4464C13.9379 15.7938 14.7095 16.9885 15.6375 17.9035C15.825 18.0885 15.8308 18.3942 15.6531 18.5853C15.5613 18.6818 15.4383 18.7321 15.3151 18.7321Z" fill="white" stroke="white" stroke-width="0.5"/>
<path fill-rule="evenodd" clip-rule="evenodd" d="M22.3103 15.6853C22.2243 15.6853 22.1384 15.6612 22.0622 15.6109C21.2183 15.0659 20.2806 14.6415 19.2707 14.3499C18.2236 14.0462 17.1238 13.8934 16.0005 13.8934C14.8792 13.8934 13.7775 14.0462 12.7304 14.3499C11.7205 14.6415 10.7828 15.0659 9.93888 15.6109C9.72009 15.7517 9.43097 15.6853 9.29227 15.458C9.15553 15.2328 9.22 14.9351 9.44074 14.7924C10.3589 14.1991 11.3805 13.7365 12.4765 13.4208C13.6056 13.093 14.7913 12.928 16.0005 12.928C17.2078 12.928 18.3936 13.093 19.5246 13.4208C20.6205 13.7385 21.6422 14.1991 22.5603 14.7924C22.7791 14.9331 22.8455 15.2328 22.7088 15.458C22.6189 15.6049 22.4666 15.6853 22.3103 15.6853Z" fill="white" stroke="white" stroke-width="0.5"/>
<path fill-rule="evenodd" clip-rule="evenodd" d="M24.1574 10.3638H7.84188C7.58207 10.3638 7.37305 10.1486 7.37305 9.88111C7.37305 9.61363 7.58207 9.39844 7.84188 9.39844H24.1574C24.4172 9.39844 24.6262 9.61363 24.6262 9.88111C24.6261 10.1486 24.4171 10.3638 24.1574 10.3638Z" fill="white" stroke="white" stroke-width="0.5"/>
<path fill-rule="evenodd" clip-rule="evenodd" d="M15.999 6.75788C14.7996 6.75788 13.6236 6.59498 12.5003 6.27119C11.4122 5.95946 10.3964 5.50294 9.48022 4.9177C9.25948 4.77692 9.19306 4.47927 9.3298 4.25201C9.46655 4.02476 9.75566 3.95638 9.97641 4.09716C10.8164 4.63413 11.7502 5.05244 12.7543 5.34003C13.7955 5.63969 14.8875 5.79053 16.0009 5.79053C17.1144 5.79053 18.2064 5.63969 19.2476 5.34003C20.2498 5.05244 21.1855 4.63413 22.0255 4.09716C22.2462 3.95638 22.5353 4.02677 22.6721 4.25201C22.8088 4.47927 22.7405 4.77692 22.5217 4.9177C21.6055 5.50294 20.5897 5.95946 19.5016 6.27119C18.3745 6.59498 17.1984 6.75788 15.999 6.75788Z" fill="white" stroke="white" stroke-width="0.5"/>
<path fill-rule="evenodd" clip-rule="evenodd" d="M15.9996 18.7623C14.8353 18.7623 13.7062 18.527 12.6416 18.0644C11.6141 17.618 10.692 16.9764 9.8989 16.1619C9.10579 15.3474 8.48458 14.3961 8.0509 13.3383C7.6016 12.2422 7.37305 11.0798 7.37305 9.88114C7.37305 8.68251 7.6016 7.52008 8.0509 6.42401C8.48458 5.36616 9.10774 4.41691 9.8989 3.60039C10.6901 2.78387 11.6141 2.14433 12.6416 1.69786C13.7062 1.2353 14.8353 1 15.9996 1C17.1639 1 18.293 1.2353 19.3577 1.69786C20.3852 2.14433 21.3072 2.78588 22.1004 3.60039C22.8935 4.4149 23.5147 5.36616 23.9483 6.42401C24.3976 7.52008 24.6262 8.68251 24.6262 9.88114C24.6262 11.0798 24.3976 12.2422 23.9483 13.3383C23.5147 14.3961 22.8915 15.3454 22.1004 16.1619C21.3092 16.9784 20.3852 17.618 19.3577 18.0644C18.2931 18.527 17.1639 18.7623 15.9996 18.7623ZM15.9996 1.96534C14.9623 1.96534 13.9543 2.1745 13.0069 2.58678C12.0907 2.98498 11.2683 3.55614 10.5631 4.28417C9.85592 5.0122 9.30309 5.85889 8.91434 6.80009C8.51388 7.77549 8.31072 8.81323 8.31072 9.88114C8.31072 10.9491 8.51388 11.9868 8.91434 12.9622C9.30113 13.9054 9.85592 14.7521 10.5631 15.4781C11.2702 16.2061 12.0927 16.7753 13.0069 17.1755C13.9543 17.5878 14.9623 17.7969 15.9996 17.7969C17.0369 17.7969 18.0449 17.5878 18.9924 17.1755C19.9085 16.7773 20.731 16.2061 21.4362 15.4781C22.1433 14.7501 22.6962 13.9034 23.0849 12.9622C23.4854 11.9868 23.6885 10.9491 23.6885 9.88114C23.6885 8.81323 23.4854 7.77549 23.0849 6.80009C22.6981 5.85687 22.1433 5.01019 21.4362 4.28417C20.729 3.55614 19.9066 2.98699 18.9924 2.58678C18.0449 2.1745 17.0369 1.96534 15.9996 1.96534Z" fill="white" stroke="white" stroke-width="0.5"/>
<path fill-rule="evenodd" clip-rule="evenodd" d="M9.37247 28.5123C9.17907 28.5123 8.99935 28.3896 8.93098 28.1905C8.56763 27.1407 8.72977 26.1371 8.87433 25.2522C9.01303 24.4035 9.13219 23.6715 8.76103 23.0923C8.6067 22.8509 8.28829 22.6297 7.92103 22.3763C7.32327 21.962 6.58094 21.4492 6.11406 20.5241C5.95388 20.2063 5.66671 19.8362 5.38737 19.8342H5.38541C5.27797 19.8342 5.18616 19.9006 5.11778 20.0333C5.05332 20.158 4.95565 20.4416 5.04355 20.9484C5.12951 21.4512 5.3776 22.0304 5.75853 22.6237C5.90113 22.8469 5.84253 23.1446 5.62569 23.2934C5.40885 23.4402 5.11974 23.3799 4.97518 23.1566C4.51807 22.4427 4.2309 21.7569 4.11955 21.1173C4.01602 20.518 4.07658 19.9831 4.29341 19.5728C4.52588 19.1303 4.93416 18.8689 5.38541 18.8689C5.38932 18.8689 5.39127 18.8689 5.39518 18.8689C5.99294 18.8749 6.5575 19.3154 6.94429 20.0776C7.30178 20.7835 7.88196 21.1857 8.44457 21.5739C8.87824 21.8735 9.28652 22.1571 9.54438 22.5613C10.1167 23.4563 9.95461 24.4498 9.79833 25.4111C9.66745 26.2176 9.53266 27.0522 9.81396 27.8647C9.89991 28.1161 9.77293 28.3916 9.52875 28.4821C9.47804 28.5042 9.42521 28.5123 9.37247 28.5123Z" fill="white" stroke="white" stroke-width="0.5"/>
<path fill-rule="evenodd" clip-rule="evenodd" d="M4.637 28.5304C4.61747 28.5304 4.59793 28.5284 4.57645 28.5264C4.32054 28.4922 4.13887 28.2509 4.17208 27.9854C4.36352 26.4509 4.02361 25.9723 3.65831 25.6143C2.37682 24.3513 1.94901 23.1748 1.6052 22.2275C1.58371 22.1712 1.56418 22.1149 1.54464 22.0586C1.28678 21.3567 1.06799 19.8041 1.01329 18.2817C0.983991 17.4833 1.00353 16.7573 1.06799 16.1841C1.15199 15.4299 1.30632 14.9452 1.55441 14.6597C1.99394 14.1529 2.42957 14.1689 2.65031 14.2232C2.99999 14.3097 3.47664 14.6436 3.75598 15.7396C3.77161 15.802 3.78919 15.9045 3.83608 16.1881C4.0197 17.2842 4.57449 20.6227 5.43207 22.0626C5.56686 22.2899 5.49849 22.5875 5.27775 22.7263C5.057 22.8651 4.76789 22.7947 4.6331 22.5674C3.68175 20.9686 3.12305 17.614 2.91208 16.351C2.88473 16.1901 2.85738 16.0232 2.84761 15.983C2.68352 15.3414 2.4745 15.1705 2.43152 15.1624C2.43152 15.1624 2.36901 15.1705 2.25375 15.3032C2.11701 15.4601 1.87869 16.2786 1.95096 18.2475C2.00176 19.6533 2.20101 21.1154 2.42175 21.7207C2.44324 21.777 2.46278 21.8334 2.48427 21.8917C2.8105 22.7907 3.17971 23.8083 4.30687 24.9184C4.67803 25.2845 4.91245 25.6766 5.04138 26.1492C5.18398 26.6721 5.20351 27.2956 5.10193 28.1101C5.07068 28.3534 4.86955 28.5304 4.637 28.5304Z" fill="white" stroke="white" stroke-width="0.5"/>
<path fill-rule="evenodd" clip-rule="evenodd" d="M10.9253 31C10.6655 31 10.4564 30.7848 10.4564 30.5173V28.5324H3.55877V30.5173C3.55877 30.7848 3.34974 31 3.08993 31C2.83012 31 2.62109 30.7848 2.62109 30.5173V28.0497C2.62109 27.7822 2.83012 27.567 3.08993 27.567H10.9273C11.1871 27.567 11.3961 27.7822 11.3961 28.0497V30.5173C11.3941 30.7828 11.1852 31 10.9253 31Z" fill="white" stroke="white" stroke-width="0.5"/>
<path fill-rule="evenodd" clip-rule="evenodd" d="M22.6282 28.5122C22.5755 28.5122 22.5227 28.5022 22.47 28.4841C22.2258 28.3956 22.0988 28.1181 22.1848 27.8667C22.4661 27.0522 22.3313 26.2196 22.2004 25.4131C22.0441 24.4518 21.882 23.4583 22.4543 22.5633C22.7122 22.1611 23.1224 21.8775 23.5541 21.5759C24.1148 21.1877 24.6969 20.7855 25.0544 20.0796C25.4412 19.3154 26.0058 18.8749 26.6035 18.8709C27.0587 18.8669 27.4709 19.1303 27.7053 19.5748C27.9221 19.9851 27.9827 20.52 27.8792 21.1193C27.7698 21.7589 27.4806 22.4467 27.0235 23.1586C26.8809 23.3819 26.5899 23.4422 26.373 23.2954C26.1562 23.1486 26.0976 22.8489 26.2402 22.6257C26.6211 22.0324 26.8673 21.4532 26.9552 20.9504C27.0431 20.4416 26.9454 20.158 26.8809 20.0353C26.8106 19.9026 26.7207 19.8362 26.6133 19.8362H26.6113C26.4375 19.8382 26.1425 20.0193 25.8847 20.5261C25.4178 21.4492 24.6735 21.964 24.0777 22.3783C23.7085 22.6337 23.392 22.8529 23.2377 23.0943C22.8685 23.6715 22.9876 24.4055 23.1244 25.2542C23.2689 26.1391 23.4311 27.1407 23.0677 28.1925C23.0013 28.3896 22.8216 28.5122 22.6282 28.5122Z" fill="white" stroke="white" stroke-width="0.5"/>
<path fill-rule="evenodd" clip-rule="evenodd" d="M27.3643 28.5304C27.1318 28.5304 26.9306 28.3534 26.8994 28.1101C26.7978 27.2936 26.8173 26.6721 26.9599 26.1492C27.0888 25.6746 27.3233 25.2845 27.6944 24.9184C28.8216 23.8083 29.1908 22.7907 29.517 21.8917C29.5385 21.8334 29.558 21.777 29.5795 21.7207C29.8022 21.1154 29.9995 19.6553 30.0503 18.2475C30.1226 16.2786 29.8823 15.4601 29.7475 15.3032C29.6323 15.1705 29.5698 15.1624 29.5698 15.1624C29.5268 15.1705 29.3178 15.3414 29.1537 15.983C29.1439 16.0232 29.1166 16.1901 29.0892 16.351C28.8782 17.614 28.3195 20.9686 27.3682 22.5674C27.2334 22.7947 26.9443 22.8671 26.7235 22.7263C26.5028 22.5875 26.4325 22.2899 26.5692 22.0626C27.4268 20.6227 27.9835 17.2842 28.1652 16.1881C28.2121 15.9045 28.2297 15.804 28.2453 15.7396C28.5247 14.6436 29.0013 14.3097 29.351 14.2232C29.5717 14.1689 30.0073 14.1529 30.4469 14.6597C30.695 14.9452 30.8493 15.4299 30.9333 16.1841C30.9978 16.7593 31.0153 17.4833 30.988 18.2817C30.9333 19.8041 30.7145 21.3567 30.4566 22.0586C30.4371 22.1129 30.4156 22.1692 30.3961 22.2275C30.0523 23.1748 29.6245 24.3513 28.343 25.6143C27.9777 25.9743 27.6378 26.4529 27.8292 27.9854C27.8624 28.2489 27.6807 28.4922 27.4248 28.5264C27.4053 28.5304 27.3837 28.5304 27.3643 28.5304Z" fill="white" stroke="white" stroke-width="0.5"/>
<path fill-rule="evenodd" clip-rule="evenodd" d="M28.9099 31C28.6501 31 28.441 30.7848 28.441 30.5173V28.5324H21.5413V30.5173C21.5413 30.7848 21.3323 31 21.0725 31C20.8127 31 20.6037 30.7848 20.6037 30.5173V28.0497C20.6037 27.7822 20.8127 27.567 21.0725 27.567H28.9099C29.1697 27.567 29.3787 27.7822 29.3787 28.0497V30.5173C29.3786 30.7828 29.1696 31 28.9099 31Z" fill="white" stroke="white" stroke-width="0.5"/>
</svg>
